<svg width="227" height="44" viewBox="0 0 227 44" fill="none" xmlns="http://www.w3.org/2000/svg">
<path d="M74.8742 7.454C76.2422 7.454 77.4242 7.712 78.4202 8.228C79.4282 8.732 80.1962 9.458 80.7242 10.406C81.2642 11.354 81.5342 12.47 81.5342 13.754C81.5342 15.038 81.2642 16.154 80.7242 17.102C80.1962 18.038 79.4282 18.758 78.4202 19.262C77.4242 19.754 76.2422 20 74.8742 20H70.9682V7.454H74.8742ZM74.8742 18.65C76.4942 18.65 77.7302 18.224 78.5822 17.372C79.4342 16.508 79.8602 15.302 79.8602 13.754C79.8602 12.194 79.4282 10.976 78.5642 10.1C77.7122 9.224 76.4822 8.786 74.8742 8.786H72.6062V18.65H74.8742ZM98.3108 17.21H92.8388L91.8308 20H90.1028L94.6388 7.526H96.5288L101.047 20H99.3188L98.3108 17.21ZM97.8428 15.878L95.5748 9.542L93.3068 15.878H97.8428ZM120.088 20H118.45L111.862 10.01V20H110.224V7.436H111.862L118.45 17.408V7.436H120.088V20ZM142.806 7.544V20H141.168V10.712L137.028 20H135.876L131.718 10.694V20H130.08V7.544H131.844L136.452 17.84L141.06 7.544H142.806ZM160.2 17.21H154.728L153.72 20H151.992L156.528 7.526H158.418L162.936 20H161.208L160.2 17.21ZM159.732 15.878L157.464 9.542L155.196 15.878H159.732ZM178.719 20L175.731 14.87H173.751V20H172.113V7.454H176.163C177.111 7.454 177.909 7.616 178.557 7.94C179.217 8.264 179.709 8.702 180.033 9.254C180.357 9.806 180.519 10.436 180.519 11.144C180.519 12.008 180.267 12.77 179.763 13.43C179.271 14.09 178.527 14.528 177.531 14.744L180.681 20H178.719ZM173.751 13.556H176.163C177.051 13.556 177.717 13.34 178.161 12.908C178.605 12.464 178.827 11.876 178.827 11.144C178.827 10.4 178.605 9.824 178.161 9.416C177.729 9.008 177.063 8.804 176.163 8.804H173.751V13.556ZM197.068 20L191.902 14.276V20H190.264V7.454H191.902V13.268L197.086 7.454H199.156L193.468 13.736L199.21 20H197.068ZM212.217 20.126C211.389 20.126 210.645 19.982 209.985 19.694C209.337 19.394 208.827 18.986 208.455 18.47C208.083 17.942 207.891 17.336 207.879 16.652H209.625C209.685 17.24 209.925 17.738 210.345 18.146C210.777 18.542 211.401 18.74 212.217 18.74C212.997 18.74 213.609 18.548 214.053 18.164C214.509 17.768 214.737 17.264 214.737 16.652C214.737 16.172 214.605 15.782 214.341 15.482C214.077 15.182 213.747 14.954 213.351 14.798C212.955 14.642 212.421 14.474 211.749 14.294C210.921 14.078 210.255 13.862 209.751 13.646C209.259 13.43 208.833 13.094 208.473 12.638C208.125 12.17 207.951 11.546 207.951 10.766C207.951 10.082 208.125 9.476 208.473 8.948C208.821 8.42 209.307 8.012 209.931 7.724C210.567 7.436 211.293 7.292 212.109 7.292C213.285 7.292 214.245 7.586 214.989 8.174C215.745 8.762 216.171 9.542 216.267 10.514H214.467C214.407 10.034 214.155 9.614 213.711 9.254C213.267 8.882 212.679 8.696 211.947 8.696C211.263 8.696 210.705 8.876 210.273 9.236C209.841 9.584 209.625 10.076 209.625 10.712C209.625 11.168 209.751 11.54 210.003 11.828C210.267 12.116 210.585 12.338 210.957 12.494C211.341 12.638 211.875 12.806 212.559 12.998C213.387 13.226 214.053 13.454 214.557 13.682C215.061 13.898 215.493 14.24 215.853 14.708C216.213 15.164 216.393 15.788 216.393 16.58C216.393 17.192 216.231 17.768 215.907 18.308C215.583 18.848 215.103 19.286 214.467 19.622C213.831 19.958 213.081 20.126 212.217 20.126ZM77.63 31.574C78.302 31.694 78.872 32.048 79.34 32.636C79.808 33.224 80.042 33.89 80.042 34.634C80.042 35.27 79.874 35.846 79.538 36.362C79.214 36.866 78.74 37.268 78.116 37.568C77.492 37.856 76.766 38 75.938 38H70.934V25.49H75.704C76.556 25.49 77.288 25.634 77.9 25.922C78.512 26.21 78.974 26.6 79.286 27.092C79.598 27.572 79.754 28.112 79.754 28.712C79.754 29.432 79.562 30.032 79.178 30.512C78.794 30.992 78.278 31.346 77.63 31.574ZM72.986 30.746H75.524C76.196 30.746 76.718 30.596 77.09 30.296C77.474 29.984 77.666 29.54 77.666 28.964C77.666 28.4 77.474 27.962 77.09 27.65C76.718 27.326 76.196 27.164 75.524 27.164H72.986V30.746ZM75.758 36.326C76.454 36.326 77 36.158 77.396 35.822C77.792 35.486 77.99 35.018 77.99 34.418C77.99 33.806 77.78 33.32 77.36 32.96C76.94 32.6 76.382 32.42 75.686 32.42H72.986V36.326H75.758ZM88.7699 38L85.8899 32.996H84.3239V38H82.2719V25.49H86.5919C87.5519 25.49 88.3619 25.658 89.0219 25.994C89.6939 26.33 90.1919 26.78 90.5159 27.344C90.8519 27.908 91.0199 28.538 91.0199 29.234C91.0199 30.05 90.7799 30.794 90.2999 31.466C89.8319 32.126 89.1059 32.576 88.1219 32.816L91.2179 38H88.7699ZM84.3239 31.358H86.5919C87.3599 31.358 87.9359 31.166 88.3199 30.782C88.7159 30.398 88.9139 29.882 88.9139 29.234C88.9139 28.586 88.7219 28.082 88.3379 27.722C87.9539 27.35 87.3719 27.164 86.5919 27.164H84.3239V31.358ZM95.6969 25.49V38H93.6449V25.49H95.6969ZM102.477 25.49C103.809 25.49 104.973 25.748 105.969 26.264C106.977 26.768 107.751 27.5 108.291 28.46C108.843 29.408 109.119 30.518 109.119 31.79C109.119 33.062 108.843 34.166 108.291 35.102C107.751 36.038 106.977 36.758 105.969 37.262C104.973 37.754 103.809 38 102.477 38H98.391V25.49H102.477ZM102.477 36.326C103.941 36.326 105.063 35.93 105.843 35.138C106.623 34.346 107.013 33.23 107.013 31.79C107.013 30.338 106.623 29.204 105.843 28.388C105.063 27.572 103.941 27.164 102.477 27.164H100.443V36.326H102.477ZM120.207 29.09C119.883 28.466 119.433 27.998 118.857 27.686C118.281 27.362 117.615 27.2 116.859 27.2C116.031 27.2 115.293 27.386 114.645 27.758C113.997 28.13 113.487 28.658 113.115 29.342C112.755 30.026 112.575 30.818 112.575 31.718C112.575 32.618 112.755 33.416 113.115 34.112C113.487 34.796 113.997 35.324 114.645 35.696C115.293 36.068 116.031 36.254 116.859 36.254C117.975 36.254 118.881 35.942 119.577 35.318C120.273 34.694 120.699 33.848 120.855 32.78H116.157V31.142H123.051V32.744C122.919 33.716 122.571 34.61 122.007 35.426C121.455 36.242 120.729 36.896 119.829 37.388C118.941 37.868 117.951 38.108 116.859 38.108C115.683 38.108 114.609 37.838 113.637 37.298C112.665 36.746 111.891 35.984 111.315 35.012C110.751 34.04 110.469 32.942 110.469 31.718C110.469 30.494 110.751 29.396 111.315 28.424C111.891 27.452 112.665 26.696 113.637 26.156C114.621 25.604 115.695 25.328 116.859 25.328C118.191 25.328 119.373 25.658 120.405 26.318C121.449 26.966 122.205 27.89 122.673 29.09H120.207ZM127.127 27.146V30.818H131.447V32.492H127.127V36.326H131.987V38H125.075V25.472H131.987V27.146H127.127ZM141.876 25.49V27.164H136.566V30.854H140.706V32.528H136.566V38H134.514V25.49H141.876ZM149.484 38.126C148.32 38.126 147.246 37.856 146.262 37.316C145.29 36.764 144.516 36.002 143.94 35.03C143.376 34.046 143.094 32.942 143.094 31.718C143.094 30.494 143.376 29.396 143.94 28.424C144.516 27.452 145.29 26.696 146.262 26.156C147.246 25.604 148.32 25.328 149.484 25.328C150.66 25.328 151.734 25.604 152.706 26.156C153.69 26.696 154.464 27.452 155.028 28.424C155.592 29.396 155.874 30.494 155.874 31.718C155.874 32.942 155.592 34.046 155.028 35.03C154.464 36.002 153.69 36.764 152.706 37.316C151.734 37.856 150.66 38.126 149.484 38.126ZM149.484 36.344C150.312 36.344 151.05 36.158 151.698 35.786C152.346 35.402 152.85 34.862 153.21 34.166C153.582 33.458 153.768 32.642 153.768 31.718C153.768 30.794 153.582 29.984 153.21 29.288C152.85 28.592 152.346 28.058 151.698 27.686C151.05 27.314 150.312 27.128 149.484 27.128C148.656 27.128 147.918 27.314 147.27 27.686C146.622 28.058 146.112 28.592 145.74 29.288C145.38 29.984 145.2 30.794 145.2 31.718C145.2 32.642 145.38 33.458 145.74 34.166C146.112 34.862 146.622 35.402 147.27 35.786C147.918 36.158 148.656 36.344 149.484 36.344ZM164.391 38L161.511 32.996H159.945V38H157.893V25.49H162.213C163.173 25.49 163.983 25.658 164.643 25.994C165.315 26.33 165.813 26.78 166.137 27.344C166.473 27.908 166.641 28.538 166.641 29.234C166.641 30.05 166.401 30.794 165.921 31.466C165.453 32.126 164.727 32.576 163.743 32.816L166.839 38H164.391ZM159.945 31.358H162.213C162.981 31.358 163.557 31.166 163.941 30.782C164.337 30.398 164.535 29.882 164.535 29.234C164.535 28.586 164.343 28.082 163.959 27.722C163.575 27.35 162.993 27.164 162.213 27.164H159.945V31.358ZM175.962 31.574C176.634 31.694 177.204 32.048 177.672 32.636C178.14 33.224 178.374 33.89 178.374 34.634C178.374 35.27 178.206 35.846 177.87 36.362C177.546 36.866 177.072 37.268 176.448 37.568C175.824 37.856 175.098 38 174.27 38H169.266V25.49H174.036C174.888 25.49 175.62 25.634 176.232 25.922C176.844 26.21 177.306 26.6 177.618 27.092C177.93 27.572 178.086 28.112 178.086 28.712C178.086 29.432 177.894 30.032 177.51 30.512C177.126 30.992 176.61 31.346 175.962 31.574ZM171.318 30.746H173.856C174.528 30.746 175.05 30.596 175.422 30.296C175.806 29.984 175.998 29.54 175.998 28.964C175.998 28.4 175.806 27.962 175.422 27.65C175.05 27.326 174.528 27.164 173.856 27.164H171.318V30.746ZM174.09 36.326C174.786 36.326 175.332 36.158 175.728 35.822C176.124 35.486 176.322 35.018 176.322 34.418C176.322 33.806 176.112 33.32 175.692 32.96C175.272 32.6 174.714 32.42 174.018 32.42H171.318V36.326H174.09ZM182.638 25.49V33.464C182.638 34.412 182.884 35.126 183.376 35.606C183.88 36.086 184.576 36.326 185.464 36.326C186.364 36.326 187.06 36.086 187.552 35.606C188.056 35.126 188.308 34.412 188.308 33.464V25.49H190.36V33.428C190.36 34.448 190.138 35.312 189.694 36.02C189.25 36.728 188.656 37.256 187.912 37.604C187.168 37.952 186.346 38.126 185.446 38.126C184.546 38.126 183.724 37.952 182.98 37.604C182.248 37.256 181.666 36.728 181.234 36.02C180.802 35.312 180.586 34.448 180.586 33.428V25.49H182.638ZM203.31 38H201.258L195.084 28.658V38H193.032V25.472H195.084L201.258 34.796V25.472H203.31V38ZM210.09 25.49C211.422 25.49 212.586 25.748 213.582 26.264C214.59 26.768 215.364 27.5 215.904 28.46C216.456 29.408 216.732 30.518 216.732 31.79C216.732 33.062 216.456 34.166 215.904 35.102C215.364 36.038 214.59 36.758 213.582 37.262C212.586 37.754 211.422 38 210.09 38H206.004V25.49H210.09ZM210.09 36.326C211.554 36.326 212.676 35.93 213.456 35.138C214.236 34.346 214.626 33.23 214.626 31.79C214.626 30.338 214.236 29.204 213.456 28.388C212.676 27.572 211.554 27.164 210.09 27.164H208.056V36.326H210.09Z" fill="#B22222"/>
<path d="M26.75 6.33333V34.8333C26.75 36.575 28.175 38 29.9167 38H48.9167V34.8333H29.9167V6.33333H26.75ZM52.0833 0H36.25C34.5083 0 33.0833 1.425 33.0833 3.16667V28.5C33.0833 30.2417 34.5083 31.6667 36.25 31.6667H52.0833C53.825 31.6667 55.25 30.2417 55.25 28.5V3.16667C55.25 1.425 53.825 0 52.0833 0ZM45.1167 21.85L44.1667 22.6417L43.2167 21.85C40.05 18.8417 37.8333 16.9417 37.8333 14.5667C37.8333 12.6667 39.4167 11.0833 41.3167 11.0833C42.425 11.0833 43.5333 11.5583 44.1667 12.35C44.8 11.5583 45.9083 11.0833 47.0167 11.0833C48.9167 11.0833 50.5 12.5083 50.5 14.5667C50.5 16.9417 48.2833 18.8417 45.1167 21.85Z" fill="#B22222"/>
<path d="M3.22222 31.9722L16.9167 31.9722L16.9167 23.1111L7.74663e-07 23.1111L2.81696e-07 28.75C2.06985e-07 29.6046 0.339483 30.4242 0.943768 31.0285C1.54805 31.6327 2.36764 31.9722 3.22222 31.9722ZM16.9167 11.0278L3.22222 11.0278C1.44275 11.0278 1.70489e-06 12.4705 1.51411e-06 14.6528L1.05636e-06 19.8889L16.9167 19.8889L16.9167 11.0278ZM29 19.8889L29 14.6528C29 12.4705 27.5573 11.0278 25.7778 11.0278L20.1389 11.0278L20.1389 19.8889L29 19.8889ZM20.1389 31.9722L25.7778 31.9722C26.6324 31.9722 27.4519 31.6327 28.0562 31.0285C28.6605 30.4242 29 29.6046 29 28.75L29 23.1111L20.1389 23.1111L20.1389 31.9722Z" fill="#B22222"/>
</svg>
