<?xml version="1.0" encoding="UTF-8"?>
<svg xmlns="http://www.w3.org/2000/svg" viewBox="0 0 160 160">
  <defs>
    <style>
      .cls-1 {
        fill: #d4f6ff;
      }

      .cls-2 {
        fill: #0069aa;
      }

      .cls-3 {
        fill: none;
        stroke: #002774;
        stroke-miterlimit: 10;
      }

      .cls-4 {
        fill: #d4f6ff;
      }

      .cls-5 {
        fill: #0069aa;
      }

      .cls-6 {
        fill: #ffc715;
      }

      .cls-7 {
        fill: #002774;
      }

      .cls-8 {
        fill: #000a51;
      }
    </style>
  </defs>
  <g id="Layer_2" data-name="Layer 2">
    <g>
      <path class="cls-8" d="M41.12,111.25l.33-.23c.11-.08.21-.11.29-.1.08,0,.14.05.19.12.05.07.06.14.05.22s-.08.15-.2.23l-1.31.91c-.12.08-.21.12-.29.11-.08,0-.14-.05-.19-.12-.04-.06-.06-.13-.04-.21.01-.07.07-.15.17-.23.3-.24.46-.6.48-1.09.03-.67-.15-1.28-.53-1.83-.25-.36-.57-.65-.96-.86-.28-.16-.56-.25-.83-.28-.46-.04-.92-.02-1.38.08-.33.08-.67.23-1,.46l-.83.57c-.7.49-1.14,1.17-1.3,2.04-.16.87-.01,1.64.46,2.31.28.4.62.71,1.02.9.4.2.88.32,1.44.38.12,0,.21.05.27.13.05.07.06.14.05.21-.01.07-.05.13-.11.17-.09.06-.27.07-.56.03-.56-.07-1.06-.23-1.5-.5-.44-.26-.8-.59-1.07-.98-.24-.34-.41-.73-.53-1.18-.09-.34-.12-.64-.11-.91.01-.27.09-.64.23-1.12.14-.48.32-.86.52-1.14.21-.28.47-.54.8-.76l.96-.67c.46-.32,1.02-.53,1.68-.62.66-.09,1.27,0,1.83.24.56.25,1.02.63,1.37,1.14.54.78.74,1.63.6,2.56Z"/>
      <path class="cls-8" d="M45.83,116.12l-4.68,5,2.79,2.61,1.56-1.67c.09-.1.18-.15.26-.16.08,0,.15.02.21.08.06.06.09.12.09.2s-.05.17-.14.27l-1.95,2.09-4.63-4.33c-.1-.09-.15-.18-.16-.26,0-.08.02-.15.07-.21.06-.06.13-.09.21-.09.08,0,.17.05.27.14l1,.93,4.68-5-1-.93c-.1-.09-.15-.18-.16-.26,0-.08.02-.15.08-.21.06-.06.13-.09.21-.09.08,0,.17.05.27.14l2.42,2.26c.1.09.15.18.16.26,0,.08-.02.15-.08.21-.06.06-.13.09-.21.09-.08,0-.17-.05-.27-.14l-1-.93Z"/>
      <path class="cls-8" d="M51.3,125.07l-1.7,2.82,3.78,2.28.87-1.45c.07-.12.14-.19.22-.21.08-.02.15-.01.22.03.07.04.12.11.13.18.01.08-.01.18-.08.29l-1.17,1.94-5.43-3.27c-.12-.07-.19-.15-.21-.22-.02-.08-.01-.15.03-.22.04-.07.11-.12.18-.13.08-.01.17.01.29.08l.66.4,3.53-5.87-.66-.4c-.12-.07-.19-.14-.21-.22-.02-.07-.01-.15.03-.22s.11-.12.18-.13c.08-.01.17.01.29.08l5.17,3.11-1.02,1.69c-.07.12-.14.19-.22.21-.08.03-.15.01-.22-.03-.07-.04-.12-.11-.13-.18-.01-.08.01-.17.08-.29l.72-1.2-3.53-2.12-1.54,2.56,1.76,1.06.33-.56c.07-.12.14-.19.22-.21.08-.02.15-.01.23.03.07.04.11.1.13.18.02.08-.01.18-.08.29l-.97,1.6c-.07.12-.14.19-.22.21-.08.02-.15.01-.22-.03-.07-.04-.12-.11-.14-.19-.02-.08.01-.18.08-.29l.33-.56-1.76-1.06Z"/>
      <path class="cls-8" d="M64.24,132.43l-3.56-1.24-1.42,1.73,1.04.36c.13.04.21.1.25.17s.04.14.02.23c-.03.08-.08.13-.15.17-.07.03-.17.03-.3-.02l-2.03-.7c-.13-.04-.21-.1-.25-.17-.04-.07-.04-.15-.02-.22.03-.08.08-.14.15-.17s.17-.02.3.02l.42.15,4.64-5.64-1.6-.56c-.13-.04-.21-.1-.25-.17-.04-.07-.04-.14-.02-.23.03-.08.08-.14.15-.17.07-.03.17-.02.3.02l2.73.95.22,7.93.42.15c.13.04.21.1.25.17.04.07.04.14.02.23-.03.08-.08.13-.15.16-.07.03-.17.03-.3-.02l-2.02-.7c-.13-.05-.22-.1-.26-.18-.04-.07-.04-.15-.02-.22.03-.08.08-.14.15-.17s.18-.02.31.02l1.03.36-.06-2.24ZM64.22,131.81l-.13-4.46-.2-.07-2.82,3.44,3.15,1.09Z"/>
      <path class="cls-8" d="M75.83,137.36l-.73-.09-3.31-7.63-.82,6.53,1.05.13c.14.02.24.06.29.12.05.06.07.13.06.22-.01.08-.05.14-.11.19-.07.05-.17.06-.31.04l-2.1-.26c-.14-.02-.24-.06-.29-.12-.05-.06-.07-.13-.06-.21.01-.09.05-.15.11-.2.06-.04.17-.06.31-.04l.47.06.85-6.8-.77-.1c-.14-.02-.23-.05-.28-.11-.05-.06-.07-.13-.06-.22.01-.09.05-.15.11-.2.07-.04.17-.06.3-.04l1.49.19,3.31,7.64.82-6.54-1.05-.13c-.14-.02-.23-.06-.28-.11-.05-.06-.07-.13-.06-.22.01-.09.05-.15.11-.2.06-.04.17-.06.3-.04l2.1.26c.14.02.23.05.28.12.05.06.07.13.06.22,0,.09-.05.15-.11.2s-.17.06-.3.04l-.48-.06-.92,7.37Z"/>
      <path class="cls-2" d="M86.26,129.66l-.02-.19c-.01-.14,0-.24.05-.3.05-.06.11-.1.2-.11.09,0,.16.02.22.07.06.05.09.15.1.29l.13,1.46c.01.14,0,.24-.05.3s-.11.1-.2.11c-.08,0-.15-.02-.21-.06-.06-.05-.09-.14-.11-.26-.06-.38-.28-.71-.68-.98-.4-.27-.89-.38-1.49-.33-.63.06-1.12.26-1.46.62-.34.36-.5.75-.46,1.2.02.23.09.43.21.61.12.18.27.32.46.42.18.1.39.18.61.23.22.05.57.1,1.04.13.79.06,1.33.14,1.64.25.41.14.73.36.96.66.23.29.36.66.4,1.08.06.65-.16,1.23-.64,1.74-.48.51-1.17.8-2.05.87-.99.09-1.82-.16-2.46-.73l.03.33c.01.13,0,.24-.05.3-.05.06-.11.1-.2.11-.08,0-.15-.02-.21-.07-.06-.05-.1-.15-.11-.29l-.14-1.58c-.01-.14,0-.24.05-.31.05-.06.11-.1.2-.11.08,0,.15.01.21.06.06.05.09.14.11.26.06.42.32.78.77,1.08s1.04.43,1.76.37c.72-.06,1.27-.29,1.65-.69s.56-.84.51-1.33c-.03-.3-.13-.56-.31-.78-.18-.22-.43-.38-.76-.49-.23-.08-.69-.14-1.39-.2-.96-.08-1.67-.26-2.11-.55s-.7-.74-.75-1.34c-.05-.6.14-1.14.58-1.61s1.05-.74,1.84-.81c.8-.07,1.51.12,2.13.58Z"/>
      <path class="cls-2" d="M94.27,132.22l.79,2.59,1.88-.57c.13-.04.23-.04.3-.01.07.03.12.09.15.17.02.08.02.15-.02.22-.04.07-.13.12-.26.16l-3.17.97c-.13.04-.23.04-.31,0-.07-.03-.12-.09-.14-.17-.03-.08-.02-.16.02-.23.04-.07.13-.12.26-.16l.74-.23-2-6.55-.74.22c-.13.04-.23.04-.3.01-.07-.03-.12-.09-.15-.17-.03-.08-.02-.16.02-.23.04-.07.13-.12.26-.16l3.19-.97c.75-.23,1.44-.2,2.05.1s1.01.75,1.19,1.34c.11.35.13.7.06,1.03-.07.33-.19.61-.36.84-.25.34-.54.63-.85.85-.23.16-.53.3-.9.41l-1.72.53ZM94.1,131.67l1.75-.54c.41-.12.76-.33,1.06-.62.3-.29.49-.59.58-.9.08-.31.08-.6,0-.87-.13-.43-.44-.76-.91-.99s-1-.26-1.56-.09l-1.95.6,1.04,3.41Z"/>
      <path class="cls-2" d="M107.64,127.16l-3.31,1.82.34,2.21.96-.53c.12-.07.22-.09.29-.07s.14.06.18.14c.04.07.05.15.02.22-.03.08-.1.15-.22.21l-1.88,1.04c-.12.07-.22.09-.3.07-.08-.02-.14-.07-.18-.14-.04-.07-.05-.15-.02-.22.03-.07.1-.14.22-.21l.39-.21-1.08-7.22-1.48.82c-.12.07-.22.09-.3.07s-.14-.06-.18-.14c-.04-.08-.05-.15-.02-.23.03-.07.1-.14.22-.21l2.53-1.4,6.04,5.15.39-.21c.12-.07.22-.09.29-.07.08.02.14.06.18.14.04.07.05.15.02.22-.03.08-.1.15-.22.21l-1.88,1.03c-.12.07-.22.09-.3.07s-.14-.06-.18-.14c-.04-.08-.05-.15-.02-.23s.1-.15.23-.21l.96-.53-1.7-1.46ZM107.17,126.76l-3.4-2.89-.19.1.67,4.4,2.92-1.61Z"/>
      <path class="cls-2" d="M114.14,116.55l-.26-.31c-.09-.1-.13-.19-.13-.27,0-.08.03-.15.1-.2.07-.06.14-.08.22-.07.08,0,.16.07.25.17l1.04,1.2c.09.11.14.2.14.28s-.03.15-.1.2c-.06.05-.13.07-.2.07-.08,0-.16-.05-.24-.14-.27-.27-.65-.39-1.14-.36-.67.04-1.25.28-1.76.72-.33.29-.58.64-.75,1.04-.13.3-.19.58-.19.85,0,.47.08.92.23,1.36.11.33.3.64.56.94l.66.76c.56.65,1.28,1.01,2.17,1.08s1.63-.16,2.25-.7c.37-.32.63-.69.79-1.11.15-.42.23-.91.22-1.47,0-.12.03-.21.1-.28.06-.05.13-.08.2-.07.07,0,.13.04.18.09.07.08.1.26.09.55,0,.56-.12,1.07-.33,1.54-.21.47-.5.86-.86,1.17-.31.27-.68.49-1.11.65-.33.12-.63.19-.9.21-.27.02-.65-.02-1.14-.11-.49-.09-.89-.22-1.19-.4s-.58-.41-.84-.71l-.77-.88c-.37-.43-.63-.96-.79-1.61s-.14-1.26.05-1.84c.19-.58.52-1.08.98-1.48.72-.62,1.54-.91,2.48-.87Z"/>
      <path class="cls-2" d="M120.8,114.19l2.63,1.98,2.66-3.53-1.35-1.02c-.11-.08-.17-.16-.19-.24-.02-.08,0-.15.05-.22.05-.07.12-.11.2-.11s.17.03.28.11l1.81,1.36-3.81,5.06c-.08.11-.16.17-.24.19-.08.01-.15,0-.22-.05-.07-.05-.11-.12-.11-.2,0-.08.03-.17.11-.28l.46-.62-5.47-4.12-.46.62c-.08.11-.16.17-.24.19-.08.02-.15,0-.22-.05s-.11-.12-.11-.2c0-.08.03-.17.11-.28l3.63-4.82,1.58,1.19c.11.08.17.16.19.24.02.08,0,.15-.05.22-.05.07-.12.11-.2.11-.08,0-.17-.03-.28-.11l-1.12-.84-2.48,3.29,2.39,1.8,1.24-1.64-.52-.39c-.11-.08-.17-.16-.19-.24-.01-.08,0-.15.06-.22.05-.07.11-.1.19-.11.08,0,.17.03.28.11l1.5,1.13c.11.08.17.16.19.24.01.08,0,.15-.05.22-.05.07-.12.11-.2.12-.08,0-.17-.03-.28-.11l-.52-.39-1.24,1.64Z"/>
    </g>
    <circle class="cls-1" cx="84.18" cy="60.65" r="1.74"/>
    <path class="cls-3" d="M117.06,38.25c13.13,10.74,21.49,26.99,21.49,45.17,0,32.33-26.44,58.54-59.06,58.54-32.62,0-59.06-26.21-59.06-58.54,0-32.33,26.44-58.54,59.06-58.54,9.31,0,18.11,2.13,25.94,5.93"/>
  </g>
  <g id="Layer_1" data-name="Layer 1">
    <path d="M74.85,38.6c-4.18.72-9.35,5.72-13.1,1.57-1.23.99-.86,2.22.1,3.25,3.06,3.29,8.94.52,11.43-2.26.26-.29,1.8-2.35,1.57-2.57Z"/>
    <path class="cls-2" d="M76.73,41.84l-.46.14c-1.17,2.28-3.37,4.23-5.75,5.18-1.55.62-3.9.85-5.11,2.06-1.71,1.72-2.86,5.62-4.01,7.86-3.9,5.71-8.62,13.23-13.44,18.14-1.94,1.97-4.87,3.93-7.04,5.95-.8.74-.73,1.22.43.88.83-.24,4.29-2.52,4.7-2.13l-.45,2.01c2.74-.39,2.65-3.74,3.7-5.15.74-.99,3.68-2.89,4.82-3.92,3.27-2.95,6.79-7.02,9.27-10.66,1.05-1.54,3.1-6.77,4.68-7.27.52-.17,1,0,1,0v3c0,1.53.74,3.9.93,5.77.77,7.68-3.91,8.48-5.81,14.3-1.73,5.29,1.68,12.18,5.61,15.69,5.79,5.18,17.82,8.9,19.17,17.57.66,4.24-3.41,5.9-7.18,7.08-6.23,1.95-10.73-.71-14.06-3.45-4.58-3.77-7.48-2.73-10.48-2.7-2.82.02,6.92,4.33,9.33,5.47,5.71,2.72,11.76,3.91,17.3,4.26,13.62.85,19.15-6.26,15.33-20.01-3.12-11.21-12.02-15.24-17.26-24.4-3.6-6.28-1.87-8.59,2.13-14.59,1.73-2.59,2.49-3.94.47-7.28-.41-.68-1.74-1.74-1.52-2.49.32-.63-2.32,2.41-1.96,2.76,2,2,3-1,5,1,.31.31,2.67,2.67,3,3l2,2c1.35,1.35,3.06,1.98,4.95,1.54,2.89-.67,7.05-8.66,8.39-11.32.53-1.05,1.27-2.6,2.03-3.55.9-1.14,5.07-3.13,5.86-3.33,5.5-1.43-1.76-.67-2.14-.59-4.83,1.03-5.7,3.54-8.11,6.45-1.05,1.27-6,7.17-7.11,7.46-.78.21-1.48-.28-2.08-.73-3.13-2.41-6.18-7.18-9.63-8.74-1.21-.55-2.94-.69-3.92-1.68-.91-.92-.93-2.41-1.41-3.52-.11-.25-1.07-2.01-1.17-2.08Z"/>
    <path class="cls-7" d="M80.27,116.5c.26.26,1.17.43,1.42.06.1-.16.35-3.27.34-3.72-.32-8.96-6.86-10.88-12.66-15.57-6.03-4.88-10.84-10.97-9.2-19.27.97-4.89,5.19-9.38,5.93-14.46.03-.24.19-.82-.2-.76-2.94,4.94-7.01,9.08-10.27,13.81-3.93,5.71-6.95,11.41-4.4,18.44,3.97,10.95,13.38,9.11,20.82,15.24,1.99,1.64,3.66,4.63,6.87,6.86-.69-4.29-3.29-7.89-6.07-10.34-4.18-3.66-9.92-5.3-13.66-9.41-4.08-4.48-4.8-11.18-2.64-16.74.33-.84.86-1.87,1.74-2.18-.41,4.2-1.48,8.71.06,12.83,3.46,9.3,15.85,10,19.89,18.64.53,1.13,1.82,6.31,2.06,6.56Z"/>
    <path class="cls-7" d="M48.41,93.93c-.62-.57-.88,1.85-.9,2.12-.24,3.36.38,7.12,2.07,10.05,1.37,2.37,3.47,3.78,5.67,5.31.17-.66.33-1.06.95-1.18,3.95-.76,10.78,1.33,14.1,4.5.57.54.76.89,1.13,1.17.69.52,4.01,2.53,6.32,2.18l-1.18-1.45c-2.65-1.58-4.88-4.02-7.47-5.63-3.38-2.1-7.34-2.87-10.9-4.55-4.94-2.33-9.33-6.82-9.78-12.51Z"/>
    <path class="cls-7" d="M82.83,29.01s.63.51.52.68c-3.5,4.18-8.47,9-14.41,8.38-.99-.1-3.35-1.07-4.03-.85-.3.1-.31.28-.37.54-.35,1.64,2.31,2.08,3.58,1.9-.1.3-.91.62-1.19.71-1.82.64-3.7.41-4.68-1.45-1.25-2.37.98-4.91,3.46-4.58,1.15.15,2.03.94,3.19,1.06,4.94.54,6.8-2.87,10.09-5.37,1.22-.93,2.31-1.79,3.83-1.04Z"/>
    <path class="cls-7" d="M73.89,26.68c1.72-.29,4.49-.21,5.88.96-2.95,1.54-5.04,5.29-8.23,6.32-5.18,1.68-3.04-4.16-.57-5.95.65-.47,2.15-1.2,2.93-1.33Z"/>
    <path class="cls-5" d="M84.03,31.34c.55,2.31-.37,4.9,1.12,6.94-1.25.62-1.33.17-1.15,1.72l-1.09.75c.09.25,1.09,2.25-.2,2.72-1.37.6-5.41-2.55-5.55-4.04-.21-2.13,1.89-3.03,3.07-4.2,1.1-1.08,2.12-2.56,3.13-3.54.22-.21.32-.43.68-.34ZM83.36,36.51c-.08-1.52-1.05-2.29-2.01-.82.54.52,1.26.9,2.01.82Z"/>
    <path class="cls-7" d="M74.85,38.6c.23.22-1.31,2.28-1.57,2.57-2.49,2.78-8.37,5.55-11.43,2.26-.96-1.04-1.33-2.26-.1-3.25,3.76,4.15,8.92-.85,13.1-1.57Z"/>
    <g>
      <path class="cls-7" d="M116.04,29.95c2.35.49,1.81.32,2.77-1.2,2.16-3.43,4.9-6.68,9.36-6.53-.8-1.5-2.5-1.97-4.11-2.01-4.57-.11-7.49,5.83-8.02,9.74Z"/>
      <path class="cls-7" d="M113.2,29.89l1.37.06c1.72-4.32,3.32-10.55,8.56-11.59.42-.42-4.06-2.35-4.97-2.21-.63.1-1.95.98-2.64,3.04,0,0-1.05,2.69-1.28,3.62-.43,1.74-1.05,7.09-1.05,7.09Z"/>
      <path class="cls-7" d="M111.38,29.32l.95-6.99c.04-.28.47-2.61,2.02-4.93.96-1.43,2.83-2.43,2.83-2.43-4.03-1.92-8.51-.84-12.66-.03-.06.51,1.78,1.64,2.21,2.1,2.8,3.03,2.99,8.2,3.34,12.08l1.31.2Z"/>
      <path class="cls-7" d="M98.67,18.09c4.03,1.17,5.95,4.37,7.31,8.08.59,1.62.09,2.86,2.52,2.76-.27-2.01-.21-4.1-.79-6.06-.99-3.34-4.21-6.94-8.03-5.66-.26.09-1.22.51-1.01.89Z"/>
      <path class="cls-7" d="M107.52,31.31c.36-.4,8.2.78,9.27,1.26.07,2.1-1.66,2.93-3.5,3.07-3.09.23-6.28-.58-5.78-4.32Z"/>
      <path class="cls-7" d="M103.22,93.4l5.9-43.36c.16-1.21,1.05-2.19,2.24-2.48h0s-2.96,21.2-6.13,46.12c-.06.51-2.01-.27-2.01-.27Z"/>
      <path class="cls-7" d="M110.17,43.77c-.09-1.38,0-2.84.34-4.16.04-.14-.07-.14.35-.09.28.04,1.41.26,1.43.34-.33,1.02-.1,2.2-.44,3.21-.14.4-.34.95-1.68.7Z"/>
      <path class="cls-7" d="M113.18,40.19l-4-.54c-.42-.06-.24-2.15.19-2.36l4.25.57c.36.33-.03,2.39-.44,2.33Z"/>
    </g>
    <path class="cls-5" d="M112.36,46.11c-.7.95-4.68,1.47-5.51.28,4.14,0,5.97-.91,5.51-.28Z"/>
    <path class="cls-1" d="M70.38,59.23c.38,2.46,4.24,3.86,5.58,1.34,1-1.89-.37-2.21-.6-3.58-.17-.97,1.68.29,2.03.71,2.04,2.48-.69,6.16-3.94,6.03-1.2-.05-2.67-.87-3.24-1.85-.4-.69-1.01-2.43.18-2.65Z"/>
    <path class="cls-4" d="M69.28,78.97c-.85.35-2.42.39-3.19-.25-.81-.67-1.17-2.94.19-3,.32,1.29.31,2.38,2.07,2.21.79-.08,1.81-.98,1.83.42-.06.11-.72.55-.89.62Z"/>
    <path class="cls-4" d="M75.95,80.58c-.7.67-2.26,1.34-3.29,1.04-1.08-.31-2.4-2.34-1.07-2.93.86,1.1,1.31,2.14,2.99,1.28.76-.39,1.4-1.66,2-.33-.02.13-.49.81-.63.95Z"/>
    <path class="cls-4" d="M82.39,87.39c.16-.24,1.28.46,1.62.48.64.04,2.01-.36,2.35-.86.26-.39-.08-1.08.35-1.48,1.63.84,1.03,2.51-.46,3.29-1.96,1.03-3.67.88-3.87-1.43Z"/>
    <path class="cls-4" d="M79.29,91.6c1.17.12,1.07.67.86,1.37-.5,1.71-3.09,2.37-5.13,1.33-1-.51-1.95-2.34-.71-2.86.87,2.41,4.26,2.24,4.98.16Z"/>
    <path class="cls-4" d="M78.17,81.92c.9.24,1.46,1.51,2.37,1.57s1.73-.94,2.45-1.34c.66.67.41,1.46-.22,2.01-1.87,1.63-4.98.38-4.59-2.24Z"/>
    <path class="cls-4" d="M70.94,83.33c1.1.53,1.22,1.68,2.68,1.54.58-.05,1.97-.96,1.79.08-.44,2.66-5.61,1.61-4.47-1.63Z"/>
    <path class="cls-4" d="M94.24,108.72c-.48-.41-1.42-1.65-.52-2.07,2.09,1.64,3.73,1.81,4.98-.61.81-.49.36,1.91.15,2.28-.11.19-1.36.92-1.64,1.01-1.1.35-2.15.07-2.96-.61Z"/>
    <path class="cls-4" d="M92.44,100.19c.11-.23,1.42.3,1.8.27,1.16-.09,2.06-1.26,1.83-2.35,3.27,2.55-2.86,5.83-3.63,2.08Z"/>
    <path class="cls-4" d="M67.9,87.71c.26-.1,1.07,1.23,1.43,1.47,1.1.73,2.71.41,3.26-.63,1.19,4.31-6.56,2.71-4.7-.84Z"/>
    <path class="cls-4" d="M90.03,95.55c.79-.35,2.05-.11,2.7-.73.47-.45-.13-1.63.39-1.78,1-.2,1.47,1.97,1.2,2.49-.21.39-1.41,1.12-1.85,1.32-.87.39-1.83-.45-2.43-1.29Z"/>
    <path class="cls-4" d="M63.89,81.54c.66,1.12,1.49,2.19,2.96,2.16.73-.02,1.56-1.51,1.6.57-2.29,2.1-4.89.01-4.56-2.73Z"/>
    <path class="cls-4" d="M84.94,100.42c.75.25,1.2.45,1.99.18.94-.32,2.06-2.23,2.64-1.03,1.14,2.4-4.22,4.41-4.63.84Z"/>
    <path class="cls-4" d="M98.6,113.35c.54,3.64-5.23,4.47-4.7.45.74-.07.38.9,1.12,1.23.62.28,1.91.2,2.45-.23l1.13-1.44Z"/>
    <path class="cls-4" d="M80.37,86.1c1.9,3.17-3.71,6.27-4.65,2.33.73-.36.72.68,1.6.68.74,0,2.03-.59,2.42-1.21l.63-1.8Z"/>
    <path class="cls-4" d="M79.1,96.24c.77.12.57.91,1.4,1.28,2.44,1.07,2.72-1.04,4.06-1.51.7-.25.37.91.21,1.29-1.2,2.82-6.25,2.52-5.68-1.05Z"/>
    <path class="cls-4" d="M77.46,71.05l-.17,1.14c-1.58.98-1.54-1.29.17-1.14Z"/>
    <path class="cls-1" d="M85.8,61.76c-1.45,1.45-4.77,1.08-4.4-1.49,1.16,1.02,2.37,1.11,3.59.12.44-.21.52-1.86,1-1.68,1.07.41.49,2.39-.18,3.06Z"/>
    <path class="cls-4" d="M89.64,92.84c-1.13,1.64-4.28,1.75-4.33-.84,1.23.84,2.38.76,3.36-.4.38-.27.2-1.92.68-1.81,1.06.25.82,2.29.29,3.05Z"/>
    <path class="cls-4" d="M92.97,112.82c-1.84.35-4.31-1.6-2.8-3.34.44,1.35,1.36,2.03,2.8,1.9.45.07,1.3-1.13,1.59-.75.66.85-.74,2.04-1.6,2.2Z"/>
    <path class="cls-4" d="M87.37,104.35c1.18.32,1.52,1.42,2.92,1.02.56-.16,1.75-1.31,1.78-.25.06,2.69-5.21,2.63-4.69-.76Z"/>
    <path class="cls-4" d="M76.99,78.05c.93.09,1.69,1.25,2.6,1.15s1.55-1.21,2.19-1.73c.77.55.65,1.37.12,2.02-1.57,1.92-4.85,1.21-4.9-1.44Z"/>
    <path class="cls-4" d="M89.96,115.61c.55.28.2.86.74,1.34,1.58,1.42,2.35-.17,3.49-.24.6-.03.05.81-.17,1.07-1.65,1.94-5.42.51-4.06-2.18Z"/>
    <path class="cls-4" d="M89.2,120.52c-.32-.38-.78.07-1.28-.24-1.47-.92-.17-1.99-.27-2.95-.05-.5-.72.18-.92.44-1.48,1.9.29,4.63,2.47,2.76Z"/>
    <path class="cls-4" d="M85.16,120.79c-.24-.29-.63.1-1.02-.13-1.14-.66-.04-1.57-.07-2.34-.02-.4-.59.18-.76.39-1.29,1.59,0,3.67,1.86,2.07Z"/>
    <path class="cls-6" d="M108.34,85.74c2.3-.43,4.08-1.1,5.04-3.36.48-1.12.5-2.15.81-3.22.07-.26.08-.54.43-.58.42,1.82.53,3.97,1.9,5.38,1.19,1.24,3.11,1.44,4.6,2.12-.95.67-2.19.76-3.22,1.26-2.51,1.21-2.25,3.17-3.07,5.45-.09.24-.09.54-.43.57-.32-2.19-.99-5.11-3.21-6.09-.21-.09-3.5-.81-2.84-1.52Z"/>
    <path class="cls-6" d="M49.2,62.93c-2.3.43-4.08,1.1-5.04,3.36-.48,1.12-.5,2.15-.81,3.22-.07.26-.08.54-.43.58-.42-1.82-.53-3.97-1.9-5.38-1.19-1.24-3.11-1.44-4.6-2.12.95-.67,2.19-.76,3.22-1.26,2.51-1.21,2.25-3.17,3.07-5.45.09-.24.09-.54.43-.57.32,2.19.99,5.11,3.21,6.09.21.09,3.5.81,2.84,1.52Z"/>
    <path class="cls-6" d="M101.23,41.33c-2.3.43-4.08,1.1-5.04,3.36-.48,1.12-.5,2.15-.81,3.22-.07.26-.08.54-.43.58-.42-1.82-.53-3.97-1.9-5.38-1.19-1.24-3.11-1.44-4.6-2.12.95-.67,2.19-.76,3.22-1.26,2.51-1.21,2.25-3.17,3.07-5.45.09-.24.09-.54.43-.57.32,2.19.99,5.11,3.21,6.09.21.09,3.5.81,2.84,1.52Z"/>
  </g>
</svg>