<svg width="299" height="284" viewBox="0 0 299 284" fill="none" xmlns="http://www.w3.org/2000/svg">
<path d="M133.636 73.265C130.712 75.0754 131.018 76.9415 134.11 76.1059C135.224 75.7995 137.312 75.7161 138.789 75.911C140.905 76.1896 141.49 76.1059 141.769 75.3819C142.771 72.7918 136.895 71.26 133.636 73.265Z" fill="#7B1E1E"/>
<path d="M160.318 73.098C158.09 74.7969 159.371 75.9111 163.577 75.9389C165.721 75.9667 167.921 76.1616 168.45 76.4124C170.149 77.1924 169.62 74.7135 167.81 73.4322C165.916 72.0956 161.905 71.9004 160.318 73.098Z" fill="#7B1E1E"/>
<path d="M135.112 79.1974C129.821 81.537 130.768 90.6722 136.254 90.6722H137.73L135.976 92.8725C134.695 94.4321 134.138 95.7968 133.943 97.7465L133.692 100.42L135.558 96.7995C141.574 84.9626 161.293 85.1856 165.86 97.1059C166.445 98.6655 167.002 99.4455 167.336 99.1112C168.088 98.3591 166.946 94.822 165.247 92.5661C164.105 91.0621 163.994 90.6722 164.69 90.6722C169.425 90.6722 171.57 84.0715 168.005 80.4787C163.966 76.4402 158.34 79.3923 159.037 85.1856C159.343 87.8313 159.315 87.8872 158.145 87.2466C156.029 86.1324 147.618 85.9653 144.61 86.968C143.134 87.4693 141.852 87.8872 141.769 87.8872C141.685 87.8872 141.852 87.1907 142.187 86.3554C143.941 81.7319 139.513 77.248 135.112 79.1974ZM139.875 81.4536C140.933 82.7068 140.348 84.2664 138.844 84.2664C137.09 84.2664 136.087 82.7068 137.09 81.537C137.981 80.4231 139.011 80.395 139.875 81.4536ZM163.827 81.4536C164.885 82.7068 164.3 84.2664 162.797 84.2664C161.042 84.2664 160.039 82.7068 161.042 81.537C161.933 80.4231 162.964 80.395 163.827 81.4536Z" fill="#7B1E1E"/>
<path d="M144.554 90.6444C140.571 93.0674 142.326 97.7185 147.924 99.5567C149.651 100.142 149.706 100.253 149.4 102.509C148.648 108.218 138.566 107.745 136.867 101.924C136.226 99.7516 134.695 99.7238 134.444 101.868C133.887 106.659 143.134 110.697 148.481 107.968C150.848 106.77 154.385 107.717 154.385 109.583C154.385 110.084 154.775 111.059 155.277 111.756C158.09 115.738 163.855 113.454 163.855 108.33C163.855 107.132 164.273 106.074 165.025 105.378C166.668 103.874 167.308 102.509 166.919 101.228C166.501 99.9187 164.969 99.7797 164.969 101.033C164.969 103.651 158.507 107.327 155.304 106.519C151.433 105.545 150.096 100.42 153.494 99.5011C156.864 98.6099 159.649 94.85 158.758 92.4268C157.7 89.5861 148.23 88.3885 144.554 90.6444ZM155.695 91.7583C156.558 92.6217 154.525 93.1789 150.375 93.1789C146.169 93.1789 144.331 92.2318 146.643 91.257C148.203 90.5885 154.887 90.9508 155.695 91.7583ZM162.212 109.076C162.212 110.157 160.899 112.386 158.504 111.756C155.867 110.267 156.444 108.135 158.504 108.413C159.758 108.609 160.073 108.72 160.491 107.968C161.271 106.519 162.212 107.182 162.212 109.076Z" fill="#7B1E1E"/>
<path d="M126.255 92.6499C125.03 93.0953 123.972 93.4574 123.888 93.4574C123.805 93.4574 123.749 93.8194 123.749 94.2651C123.749 95.7135 127.648 96.4932 130.043 95.4905C134.5 93.6245 130.962 90.9787 126.255 92.6499Z" fill="#7B1E1E"/>
<path d="M170.734 92.3156C169.035 93.0397 168.729 93.7915 169.731 94.7942C171.207 96.2704 177.78 95.7134 177.78 94.1258C177.78 92.7891 172.739 91.48 170.734 92.3156Z" fill="#7B1E1E"/>
<path d="M87.543 99.0834C87.543 101.701 93.1689 106.826 96.0376 106.826C98.9897 106.826 103.892 103.205 104.56 100.532L104.95 98.9719L103.307 100.643C99.1568 104.765 91.47 104.096 88.5735 99.3339L87.543 97.635V99.0834Z" fill="#7B1E1E"/>
<path d="M182.237 116.295C181.179 116.964 183.462 116.964 185.579 116.295C186.86 115.878 186.805 115.85 185.022 115.794C183.964 115.766 182.711 115.989 182.237 116.295Z" fill="#7B1E1E"/>
<path d="M108.777 157.072C109.752 159.44 111.228 159.579 113.623 157.518L115.572 155.847L113.706 156.459C112.202 156.961 111.478 156.905 109.947 156.181L108.053 155.29L108.777 157.072Z" fill="#7B1E1E"/>
<path d="M148.309 171.193C148.309 171.792 150.151 172.873 150.977 172.761C151.708 172.66 152.963 171.675 153.058 171.148C153.153 170.488 152.883 170.605 151.819 171.691L150.945 172.587L149.627 171.619L148.309 170.65V171.193Z" fill="#7B1E1E"/>
<path d="M94.0045 154.006C92.2778 163.977 93.0856 175.897 95.5085 175.897C95.815 175.897 95.62 175.396 95.0909 174.811C93.6981 173.251 93.4754 170.132 94.1716 160.607C94.7567 152.279 94.7008 150.051 94.0045 154.006Z" fill="#7B1E1E"/>
<path d="M110.715 101.312C110.576 101.729 110.186 103.011 109.824 104.124C108.989 106.854 106.398 110.391 104.282 111.616C102.611 112.619 101.692 116.296 103.14 116.296C103.446 116.296 103.836 117.243 104.031 118.384C104.505 121.281 107.318 122.785 109.295 121.17C110.548 120.167 110.158 119.109 108.571 119.081C107.958 119.081 103.14 114.597 103.14 114.04C103.14 113.399 108.042 110.502 111.105 109.333C113.417 108.469 113.751 108.135 113.445 107.16C113.222 106.52 112.749 104.932 112.387 103.651C111.634 100.977 111.077 100.197 110.715 101.312Z" fill="#7B1E1E"/>
<path d="M178.235 187.997L175.719 190.513L176.646 191.44L177.175 189.851L178.235 187.997Z" fill="#7B1E1E"/>
<path d="M186.577 191.307L184.062 193.823L184.988 194.75L185.518 193.161L186.577 191.307Z" fill="#7B1E1E"/>
<path fill-rule="evenodd" clip-rule="evenodd" d="M147.225 55.2549C147.225 54.4193 147.392 53.2217 147.559 52.5533L147.893 51.3557L150.762 52.4977C154.995 54.2244 159.507 57.3437 160.705 59.3768C162.376 62.1899 164.158 62.3014 166.943 59.711C171.065 55.8955 182.93 52.9153 184.796 55.1993C185.13 55.6169 186.662 56.6196 188.194 57.4273C194.99 60.9367 197.997 71.3251 194.349 78.7334C193.569 80.3767 192.901 82.4936 192.901 83.4682C192.901 86.0026 189.781 89.3171 187.414 89.3171C185.632 89.3171 185.13 89.8462 186.272 90.5425C188.974 92.2136 190.199 102.908 187.609 102.268C186.328 101.934 186.272 102.045 186.578 103.605C187.302 107.281 184.907 112.294 183.097 110.79C182.317 110.15 182.234 110.233 182.401 111.403C182.568 112.489 183.181 112.907 185.659 113.659C189.698 114.857 194.572 117.001 194.572 117.558C194.572 118.227 190.7 121.123 187.888 122.544L185.381 123.825L188.361 125.273C191.48 126.805 191.564 127.055 190.422 130.62C190.143 131.456 190.45 131.957 191.62 132.654C192.483 133.183 195.686 135.968 198.75 138.864C202.621 142.485 204.932 144.24 206.214 144.546C213.121 146.05 215.655 151.481 211.867 156.606C210.893 157.915 210.809 158.416 211.338 159.391C212.424 161.452 211.31 168.22 209.862 168.22C208.275 168.22 208.525 169.501 211.004 174.013C212.512 176.809 213.25 178.074 212.887 178.721C212.56 179.306 211.336 179.388 208.971 179.639L205.267 180.028L204.32 182.48C203.679 184.151 202.983 185.042 202.12 185.265C201.173 185.487 200.755 186.1 200.504 187.493C200.059 190.333 198.164 193.035 195.825 194.233C194.683 194.79 193.068 195.737 192.232 196.266C190.645 197.324 189.392 197.324 181.482 196.21C177.666 195.681 176.162 194.985 174.63 193.007C174.018 192.255 173.099 191.615 172.597 191.615C170.285 191.615 165.607 187.66 165.607 185.71C165.607 184.791 165.049 184.791 159.591 185.682L155.524 186.323L152.879 191.197L150.233 196.071L147.754 191.085L147.706 190.99C145.275 186.1 145.261 186.072 143.13 186.072C137.254 186.017 124.08 182.34 117.535 178.942L113.747 176.965L114.109 174.82C114.527 172.342 114.472 172.314 112.021 173.762C108.762 175.684 105.643 176.101 105.002 174.681C104.389 173.372 104.389 173.372 103.22 177.661C101.771 183.009 97.0924 185.292 92.8868 182.702C89.9347 180.864 89.2104 178.608 89.3219 171.478C89.4334 165.936 89.3219 165.212 88.3751 164.71C86.3139 163.624 79.8246 156.299 79.8246 155.074C79.8246 154.907 80.688 153.737 81.7743 152.484L83.696 150.228L82.5818 148.417C78.4321 141.705 81.0781 131.094 87.7622 127.557C90.2689 126.248 90.408 126.053 90.408 123.852C90.408 122.042 90.631 121.513 91.5221 121.262C93.6109 120.733 93.1096 115.024 90.8815 113.882C84.0858 110.345 83.0553 104.719 85.7013 85.6406C87.623 71.715 87.6508 71.6035 89.3775 71.4086C91.0486 71.2137 91.5221 75.28 91.5221 89.8184C91.5221 102.686 92.6919 99.4269 93.4718 84.3874C94.0844 72.1329 94.2515 71.2973 95.9783 71.2973C97.8443 71.2973 97.8721 71.4086 98.8192 86.7548C99.4876 97.1988 100.435 101.321 100.435 93.6617C100.435 91.5729 100.602 85.6962 100.797 80.6275L101.159 71.3808L102.607 71.1302C103.116 71.0285 103.473 70.8964 103.759 70.9867C104.572 71.2428 104.823 73.2836 106.367 82.8556C108.734 97.5609 108.901 104.022 106.952 108.284C105.67 111.069 102.551 114.188 101.075 114.188C100.045 114.188 100.239 120.817 101.27 121.235C101.799 121.429 102.106 122.293 102.106 123.602C102.106 125.551 102.273 125.719 104.919 126.86C107.23 127.835 107.899 128.448 108.678 130.314C110.294 134.213 111.77 132.848 110.767 128.392C110.405 126.805 110.489 126.666 113.19 125.635C114.888 124.975 115.764 124.641 115.791 124.248C115.82 123.828 114.881 123.342 112.94 122.321C105.225 118.282 105.476 117.335 115.196 114.188C118.678 113.061 119.614 112.763 119.708 112.296C119.744 112.116 119.656 111.912 119.54 111.626C119.346 111.069 119.039 110.957 118.677 111.319C117.117 112.879 114.806 109.286 114.75 105.164C114.722 102.853 114.555 102.519 113.72 102.797C111.492 103.493 111.742 97.3103 114.109 92.6312C115.725 89.4564 113.882 89.3655 112.768 89.3655C110.767 87.9802 109.904 86.0863 109.904 84.6938C109.904 84.0532 109.542 82.9668 109.124 82.2706C108.678 81.6021 107.927 78.6778 107.425 75.7813C106.924 72.8292 106.116 70.0717 105.615 69.5147C103.721 67.3982 110.767 56.8145 114.082 56.8145C114.472 56.8145 115.391 56.3132 116.17 55.7006C119.819 52.8319 130.375 55.4498 134.914 60.3795C135.666 61.1594 136.725 61.8279 137.282 61.8279C137.762 61.8279 138.054 61.8363 138.17 61.6978C138.349 61.4825 138.104 60.9126 137.477 59.4049C136.558 57.2046 136.363 53.1661 137.143 52.6648C137.588 52.3862 142.1 54.1129 145.693 55.979C147.169 56.7311 147.225 56.7311 147.225 55.2549ZM160.036 63.3875C160.036 62.4963 155.998 58.5134 153.408 56.8423C149.509 54.3637 149.174 54.6701 151.152 58.987C152.461 61.8835 152.238 62.357 150.288 60.8252C148.756 59.5998 139.983 56.0626 139.566 56.4803C139.454 56.6196 139.816 57.8172 140.401 59.1263C141.543 61.6607 143.632 63.9444 144.245 63.3041C144.69 62.8862 146.111 63.9725 146.111 64.7522C146.111 65.3091 143.27 65.0586 140.68 64.3065C139.983 64.0837 139.426 64.1394 139.426 64.418C139.454 65.5043 141.571 67.5653 142.824 67.6765C144.913 67.8995 144.997 67.9273 144.997 68.5121C144.997 68.8185 144.133 69.0693 143.103 69.0693C141.014 69.0693 137.755 66.8131 137.755 65.365C137.755 63.9166 132.213 67.3423 128.481 71.1024C124.526 75.0572 121.407 80.8502 120.32 86.1697C119.93 88.0636 119.095 90.2082 118.454 90.9045C116.923 92.5756 116.338 93.7732 115.279 97.3382C114.249 100.847 114.499 100.931 117.563 98.0344C120.237 95.5277 121.713 95.0545 119.958 97.2825C117.814 100.012 116.449 109.203 118.204 109.175C118.657 109.153 119.24 106.903 119.651 105.319C119.77 104.858 119.875 104.453 119.958 104.176C120.042 103.896 120.088 103.675 120.13 103.474C120.226 103.009 120.301 102.652 120.766 101.934C121.629 100.601 122.056 101.263 121.601 103.249C121.415 104.065 121.408 104.857 121.56 105.623V105.633L121.601 105.883V106.139C121.601 108.646 123.718 113.436 125.584 115.08L126.782 116.138L126.42 114.3C126.086 112.517 126.141 112.545 129.233 115.859C130.959 117.725 133.104 119.647 134.023 120.12L135.694 120.984L134.413 118.923L133.132 116.862L135.861 118.784C138.925 120.984 141.264 122.209 143.325 122.766C144.495 123.101 144.551 123.045 143.743 122.544C141.933 121.402 142.741 120.984 145.136 121.819C148.283 122.934 153.686 122.934 156.276 121.819C158.504 120.873 158.978 121.095 157.39 122.377C154.382 124.8 162.292 121.04 166.024 118.254C168.113 116.695 168.308 116.973 166.693 119.257C166.052 120.148 165.69 120.873 165.885 120.873C166.832 120.873 171.316 117.28 172.653 115.414C175.02 112.211 175.271 112.044 174.881 114.049C174.073 118.449 178.53 113.046 179.56 108.367C180.031 106.288 180.145 105.081 179.921 104.76L179.427 103.647L178.176 101.646C178.049 100.856 179.661 101.843 179.956 102.268C180.085 102.453 180.233 102.644 180.383 102.837C180.66 103.194 180.943 103.558 181.12 103.911C181.293 104.257 181.377 104.541 181.511 104.995C181.582 105.236 181.667 105.526 181.788 105.898C182.317 106.825 182.874 107.866 182.874 108.339C182.874 108.841 183.125 109.091 183.431 108.896C185.047 107.894 183.292 98.4801 181.259 97.2267C180.535 96.7812 180.423 95.8063 181.12 95.8063C181.37 95.8063 182.679 96.8368 184.016 98.0622C185.381 99.3157 186.551 100.068 186.662 99.7611C187.108 98.4523 184.935 92.8261 183.264 90.9045C182.262 89.7625 181.37 88.0917 181.259 87.1724C180.256 77.7866 168.781 64.4736 161.234 63.9166C160.565 63.861 160.036 63.6102 160.036 63.3875ZM132.241 61.7442C130.932 60.6025 128.536 59.1541 126.893 58.5415C125.25 57.9287 122.576 57.2602 120.961 57.0931L117.981 56.7311L119.29 57.9009L120.599 59.0426H118.176C115.725 59.0707 111.492 60.6303 110.767 61.8001C110.489 62.2455 110.823 62.3292 111.937 62.0506C113.497 61.6608 113.497 61.6886 111.185 64.1952C107.286 68.4564 106.924 72.1048 109.737 78.3158L110.517 80.0703L112.021 78.5663C112.856 77.731 113.859 76.9511 114.249 76.8118C114.834 76.6168 114.862 76.1992 114.388 74.9735C114.026 74.0546 113.942 72.5227 114.193 71.3808C114.416 70.2669 114.527 69.0134 114.444 68.5958C114.36 68.1778 114.527 67.9829 114.806 68.1778C115.084 68.3449 115.808 67.9551 116.365 67.3145C118.816 64.5851 122.827 63.9444 126.336 65.727C127.642 66.3865 128.304 66.7398 128.965 66.7369C129.7 66.7337 130.433 66.2901 132.046 65.3372L134.608 63.8332L132.241 61.7442ZM181.092 59.0426L182.401 57.9565L183.71 56.8423L182.039 56.8704C177.443 56.9538 171.957 59.0148 168.67 61.9113L166.665 63.6383L169.617 65.4484L172.569 67.231L174.185 66.1169C179.838 62.1621 187.108 66.284 186.94 73.3583C186.857 76.1711 186.913 76.3104 188.305 76.3104C189.113 76.3104 190.199 76.7283 190.784 77.2297C192.121 78.4551 192.288 78.2043 192.928 74.0824C193.653 69.6262 192.956 67.3423 189.921 64.1952L187.637 61.8001L189.531 62.1899C190.951 62.4685 191.313 62.3848 190.979 61.8557C190.227 60.6303 186.021 59.0707 183.515 59.0426H181.092ZM121.379 74.1939C124.498 72.1885 126.81 68.9022 125.696 68.0944C122.186 65.5321 116.588 68.8185 116.588 73.4417C116.588 76.227 120.014 79.7083 120.627 77.5639C120.794 77.0345 121.1 76.1433 121.323 75.6142C121.657 74.8345 121.518 74.6952 120.682 74.9735C120.125 75.1685 120.432 74.8064 121.379 74.1939ZM183.069 77.1738C185.409 74.6674 184.685 69.5147 181.788 67.9829C180.423 67.2311 176.775 67.2589 175.466 68.0107C174.574 68.5399 174.714 68.8185 176.803 71.1858C178.056 72.6342 179.643 74.9179 180.34 76.2826L181.621 78.7615L183.069 77.1738ZM99.4876 100.151C98.1229 100.012 97.8721 99.6777 97.5101 97.4775C97.2873 96.0849 96.8975 90.7096 96.6745 85.5013C96.2013 75.2521 95.4769 77.7029 95.3935 89.9018C95.3098 98.2574 94.8922 99.9563 92.9146 100.123C89.9069 100.402 89.8788 100.235 89.4612 87.9802L89.0713 76.589L87.8179 87.1724C85.6176 105.666 86.6759 110.094 93.6946 112.239C94.9756 112.628 95.0037 112.768 94.6972 116.75L94.3908 120.873H96.0341H97.6494V116.806V112.74L99.571 112.044C104.25 110.345 106.339 105.61 105.81 97.7561C105.448 92.3529 103.359 76.8118 102.913 76.3941C102.774 76.2548 102.663 81.2679 102.663 87.5623C102.663 100.068 102.551 100.513 99.4876 100.151ZM184.072 86.4762C188.25 89.9855 193.513 83.8305 190.088 79.4577C188.918 77.9815 187.331 77.4802 187.331 78.5663C187.331 78.8727 187.693 79.2628 188.11 79.4299C190.756 80.4604 189.976 85.6684 187.08 86.2534C184.295 86.7826 182.874 81.8529 185.214 79.6805C186.244 78.7056 186.272 78.5385 185.492 78.5385C182.373 78.5385 181.342 84.2203 184.072 86.4762ZM116.757 79.6797C117.161 79.5774 117.452 79.5036 117.452 79.4299C117.452 79.2347 115.725 78.5663 115.335 78.5944C110.182 78.9005 110.795 88.1679 115.975 88.1679C119.153 87.3734 119.502 81.0568 119.285 80.6275C119.249 80.5555 119.169 80.8243 119.032 81.283C118.588 82.773 117.548 86.2661 115.474 86.5789C112.717 85.4928 112.355 82.6607 114.639 80.5438C115.124 80.0936 116.093 79.8481 116.757 79.6797ZM117.191 82.2743L117.19 82.2706C117.058 81.6652 116.588 81.5327 115.975 81.5327C114.164 82.6188 113.544 83.9139 115.048 84.6938C115.975 85.3729 117.023 84.5357 117.19 83.7838C117.357 83.0333 117.322 82.8768 117.191 82.2743ZM186.105 84.1088C187.219 84.1088 188.612 82.5492 188.277 81.6858C187.915 80.7666 186.718 80.4604 186.021 81.1289C185.492 81.658 185.576 84.1088 186.105 84.1088ZM190.84 117.92C190.589 117.781 188.639 117.113 186.495 116.444C184.35 115.776 182.289 115.135 181.927 115.024C179.95 114.411 178.808 119.87 180.479 121.931L181.565 123.268L186.411 120.705C189.085 119.313 191.063 118.059 190.84 117.92ZM118.872 122.822C121.017 123.63 122.493 119.146 121.017 116.388C120.209 114.857 113.664 116.026 111.38 118.087C110.962 118.477 116.338 121.847 118.872 122.822ZM176.273 117.53C164.743 126.721 145.804 128.587 131.795 121.931C129.901 121.04 127.06 119.285 125.501 118.032C122.159 115.414 122.66 117.642 126.03 120.482C137.56 130.203 164.548 129.98 175.494 120.093C178.53 117.363 179.17 115.191 176.273 117.53ZM99.07 127.585C99.8496 128.225 99.9333 128.03 99.7662 125.858L99.5991 123.379L96.1176 123.212L92.6363 123.045L92.6641 124.883C92.6641 126.526 92.7475 126.61 93.416 125.746C94.4743 124.326 98.2063 124.382 98.2063 125.83C98.2063 126.387 98.5964 127.195 99.07 127.585ZM120.488 125.384C120.488 126.443 124.637 130.537 125.473 130.258C125.807 130.147 124.832 128.81 123.3 127.306C121.629 125.663 120.488 124.883 120.488 125.384ZM175.8 130.119C176.273 130.593 178.641 128.866 180.005 127C180.785 125.942 180.98 125.329 180.535 125.356C179.643 125.356 175.354 129.701 175.8 130.119ZM117.452 128.587C118.649 128.17 119.346 127.557 119.262 127.055C119.011 125.858 118.231 125.858 115.669 127.055L113.385 128.086L115.697 133.823C118.259 140.062 119.708 142.847 119.123 140.368C118.928 139.589 118.621 137.722 118.427 136.218C118.204 134.436 117.591 132.932 116.783 132.041C115.001 130.119 115.14 129.423 117.452 128.587ZM188.417 128.058L185.882 126.972C182.819 125.663 182.317 125.635 182.317 126.749C182.317 127.223 183.208 127.975 184.295 128.448C185.966 129.144 186.216 129.478 185.91 130.509C185.325 132.319 185.214 132.347 183.543 130.732C181.704 128.949 181.12 128.894 179.894 130.258C177.917 132.431 179.643 134.77 181.788 132.821C182.846 131.874 182.874 131.874 182.874 133.601C182.874 134.575 183.097 135.355 183.376 135.355C183.654 135.355 183.515 136.525 183.097 137.945C182.094 141.287 182.401 141.622 183.71 138.558C184.198 137.35 185.351 134.79 186.314 132.651C186.394 132.472 186.473 132.296 186.551 132.124L188.417 128.058ZM129.901 133.935C136.39 132.737 137.727 130.76 134.274 127.529C132.185 125.579 130.904 126.136 127.478 130.398C125.592 132.766 124.625 133.943 124.889 134.386C125.159 134.84 126.718 134.526 129.901 133.935ZM176.747 134.408C176.747 133.879 172.263 127.919 171.26 127.139C169.868 126.025 168.002 126.331 166.748 127.919C164.52 130.76 165.579 132.821 169.645 133.601C174.268 134.492 176.747 134.742 176.747 134.408ZM106.395 138.363C107.899 136.302 107.314 132.097 105.225 130.008C102.189 126.972 100.992 127.919 103.22 131.567C103.804 132.57 104.612 134.742 104.974 136.386C105.587 139.059 105.726 139.282 106.395 138.363ZM93.6109 150.2C103.08 151.369 106.701 135.522 98.2622 129.924C89.1826 123.908 79.4347 137.082 85.1722 147.61C87.7622 152.372 91.5221 154.545 91.5221 151.258C91.5221 150.061 91.7171 149.977 93.6109 150.2ZM120.543 132.57C121.769 132.57 121.824 132.347 121.017 130.871C120.376 129.618 119.596 129.478 119.234 130.481C118.816 131.623 119.401 132.57 120.543 132.57ZM152.544 138.697C154.745 133.266 154.828 132.486 153.491 131.344C151.959 130.036 150.901 129.841 149.091 130.62C146.222 131.818 146.25 132.319 150.01 141.761L150.65 143.432L152.544 138.697ZM117.835 148.651C117.593 146.796 116.896 145 115.725 141.566C114.304 137.388 113.079 133.879 112.996 133.795C112.745 133.545 109.347 137.583 109.347 138.112C109.347 138.391 108.678 139.394 107.871 140.368C106.228 142.346 106.645 143.126 109.375 143.153C111.519 143.153 116.031 144.825 116.031 145.604C116.031 145.967 114.917 147.359 113.525 148.724C111.993 150.228 111.018 151.676 111.018 152.484C111.018 155.714 106.061 162.649 103.749 162.649C103.331 162.649 103.192 164.237 103.303 167.662C103.526 173.428 104.083 173.873 107.899 171.283C110.238 169.696 110.907 169.501 109.904 170.726C108.929 171.924 110.015 171.812 112.633 170.476L114.75 169.389L115.92 163.095C117.54 154.343 118.199 151.431 117.835 148.651ZM198.777 142.624C196.605 140.536 193.513 137.667 191.898 136.246L191.879 136.23C188.584 133.35 188.555 133.325 188.027 134.659C182.791 148.306 181.677 159.001 185.994 154.238C187.302 152.79 190.088 151.314 190.589 151.787C190.784 151.982 190.143 152.873 189.141 153.765C188.011 154.772 187.427 155.28 187.518 155.589C187.613 155.912 188.448 156.016 190.171 156.244C194.6 156.856 201.228 160.477 204.487 164.042C207.3 167.106 207.94 167.161 207.94 164.237C207.94 163.624 208.191 163.29 208.497 163.485C209.389 164.042 209.138 161.145 208.135 158.862C207.244 156.912 207.189 156.884 206.993 158.193C206.548 161.062 206.047 161.173 205.712 158.472C205.322 155.102 205.406 154.879 206.826 155.241C207.439 155.408 207.773 155.77 207.578 156.076C207.411 156.383 207.801 156.355 208.47 155.993C209.11 155.631 209.89 154.767 210.141 154.071C210.725 152.539 210.224 148.055 209.528 148.501C208.163 149.336 202.537 146.273 198.777 142.624ZM144.829 137.583C144.161 137.583 141.487 137.082 138.869 136.441C136.279 135.829 133.689 135.188 133.16 135.021C132.631 134.854 132.185 134.993 132.185 135.299C132.185 136.107 138.814 138.057 143.158 138.502C145.888 138.781 146.723 138.697 146.445 138.224C146.222 137.862 145.498 137.583 144.829 137.583ZM156.276 138.697C159.897 138.697 169.506 136.191 169.506 135.244C169.506 134.742 168.197 134.631 167.723 135.076C167.556 135.244 164.66 135.968 161.234 136.664C154.661 138.001 152.99 138.697 156.276 138.697ZM126.531 141.148C128.676 139.366 130.291 137.695 130.152 137.444C129.595 136.525 128.397 137.193 124.22 140.73L119.903 144.407L129.79 154.517L139.705 164.599L139.538 172.676C139.426 177.104 139.259 180.836 139.12 180.948C138.201 181.895 118.259 175.405 118.259 174.18C118.287 173.818 118.538 171.868 118.816 169.891C121.546 151.732 121.824 149.281 121.156 149.281C120.905 149.281 120.014 153.347 119.178 158.332C118.315 163.318 117.312 169.083 116.895 171.172L116.17 174.932L118.649 176.408C121.852 178.274 129.01 180.697 134.691 181.867C137.143 182.368 139.705 182.897 140.401 183.064L141.654 183.371V173.901V164.432L139.064 161.452C137.616 159.808 133.327 155.325 129.539 151.453L122.632 144.435L126.531 141.148ZM178.947 142.206C177.582 140.981 175.689 139.282 174.714 138.502C172.959 137.026 171.177 136.553 171.177 137.555C171.177 137.834 171.511 138.279 171.929 138.53C172.346 138.781 174.018 140.173 175.661 141.649L178.613 144.323L170.536 152.511C163.493 159.651 160.899 161.932 159.963 164.761C159.282 166.821 159.479 169.172 159.479 173.901C159.479 182.73 159.535 183.343 160.454 182.953C160.983 182.73 162.237 182.424 163.239 182.285C164.548 182.089 165.049 181.727 165.049 180.976C165.049 180.112 164.827 180.028 163.629 180.474C162.821 180.781 162.069 181.031 161.958 181.031C161.819 181.031 161.707 177.299 161.707 172.759V164.488L163.406 162.315C164.325 161.118 168.754 156.633 173.238 152.317L181.426 144.49L178.947 142.206ZM137.536 144.416C137.057 142.813 136.693 141.593 136.558 141.12C136.279 140.118 135.583 139.254 134.97 139.087C133.633 138.753 133.578 139.226 134.747 141.928C135.945 144.741 139.983 156.661 139.955 157.358C139.955 157.664 138.089 155.909 135.833 153.459C133.578 151.007 131.544 149.169 131.322 149.392C131.099 149.615 132.658 151.509 134.747 153.598C136.864 155.714 139.426 158.416 140.429 159.614L142.239 161.814L141.905 159.864C141.738 158.778 140.568 154.517 139.315 150.395C138.684 148.257 138.045 146.12 137.536 144.416ZM161.846 156.299C161.512 155.965 165.634 144.184 167.083 141.343C168.392 138.725 168.308 138.474 166.108 139.059C165.579 139.199 164.827 140.619 164.298 142.485C163.796 144.24 162.738 147.777 161.958 150.367C159.618 158.277 158.839 162.12 159.925 160.421C160.426 159.641 162.961 156.829 165.551 154.155C168.141 151.481 170.035 149.281 169.729 149.281C169.422 149.281 167.584 150.896 165.634 152.873C163.657 154.879 161.958 156.411 161.846 156.299ZM148.896 144.128C147.921 141.928 147.67 141.733 145.164 141.427C143.687 141.232 141.682 140.898 140.68 140.675C139.873 140.499 139.366 140.331 139.149 140.511C138.784 140.817 139.252 142.121 140.513 146.078C144.217 157.803 144.551 159.586 144.829 170.253L145.108 180.363L146.528 181.115C148.729 182.285 154.132 182.062 155.608 180.725C156.75 179.694 156.806 179.304 156.555 172.119C156.248 162.844 157.752 154.6 161.958 142.652L162.821 140.229L161.039 140.591C160.064 140.786 157.947 141.093 156.36 141.287C153.63 141.594 153.408 141.733 152.628 143.794C151.653 146.245 151.82 146.356 154.327 144.825C155.329 144.212 156.444 143.71 156.806 143.71C157.168 143.71 155.97 144.602 154.16 145.716L150.845 147.721L147.336 145.883C145.386 144.852 144.105 143.905 144.44 143.794C144.774 143.683 145.999 144.24 147.141 145.047C149.954 146.997 150.121 146.886 148.896 144.128ZM127.84 145.827C129.846 147.833 133.216 145.214 131.294 143.098C130.235 141.9 129.567 141.817 128.147 142.652C127.032 143.293 126.865 144.852 127.84 145.827ZM169.673 145.604C171.205 147.693 174.992 145.465 173.628 143.293C172.792 141.984 170.954 141.789 169.84 142.875C168.754 143.989 168.726 144.323 169.673 145.604ZM102.301 150.785C102.802 151.258 104.891 147.972 105.225 146.134C105.42 145.075 105.42 144.072 105.225 143.878C105.058 143.683 104.891 143.905 104.891 144.379C104.891 144.825 104.25 146.412 103.47 147.888C102.691 149.336 102.161 150.645 102.301 150.785ZM113.441 145.66L111.798 145.298C109.765 144.88 107.119 144.741 107.119 145.075C107.119 145.744 109.041 149.281 109.403 149.281C109.626 149.281 110.628 148.473 111.631 147.47L113.441 145.66ZM181.76 155.937C181.76 155.297 181.482 153.681 181.147 152.317C180.368 149.309 179.17 148.167 179.727 151.007C179.939 151.986 180.226 153.667 180.421 154.812L180.451 154.99C180.813 157.191 181.76 157.887 181.76 155.937ZM107.565 154.74C108.539 153.765 108.4 151.119 107.342 150.729C104.751 149.726 101.632 152.679 103.247 154.6C104.055 155.575 106.645 155.659 107.565 154.74ZM100.49 164.683C100.156 158.722 99.8774 153.347 99.8774 152.706C99.8774 151.425 99.6269 151.342 97.928 152.066C97.3152 152.317 96.0341 152.567 95.0871 152.595L93.3604 152.623L92.7197 159.168C92.3577 162.761 92.0235 168.415 91.94 171.757L91.8007 177.773L93.6109 179.416C95.839 181.393 97.2595 181.449 99.0419 179.694C101.047 177.689 101.159 176.436 100.49 164.683ZM87.6229 158.75C89.0155 158.75 90.0181 156.244 88.9876 155.38C87.6786 154.294 83.696 153.737 83.3617 154.6C82.9997 155.492 86.3419 158.75 87.6229 158.75ZM103.192 160.31C103.582 160.449 104.807 159.641 105.921 158.527C108.4 156.049 108.094 155.965 104.919 158.304C103.526 159.335 102.802 160.198 103.192 160.31ZM184.406 164.404C185.854 165.852 189.475 163.346 188.695 161.424C188.528 161.034 187.247 159.864 185.827 158.806L183.292 156.94L183.543 160.365C183.682 162.231 184.072 164.07 184.406 164.404ZM198.193 162.399C200.978 163.568 197.691 161.034 194.711 159.725C191.397 158.277 187.331 157.385 187.331 158.137C187.331 158.36 189.531 159.307 192.204 160.226C194.878 161.173 197.58 162.148 198.193 162.399ZM134.803 170.698C134.302 170.503 131.739 167.746 129.093 164.543C126.448 161.368 124.22 158.75 124.164 158.75C122.437 158.75 123.273 160.561 127.088 165.017C129.428 167.774 131.906 170.698 132.575 171.506C133.717 172.871 133.828 172.899 134.747 172.007C135.639 171.116 135.639 171.005 134.803 170.698ZM180.646 160.7L179.393 160.365C176.998 159.753 173.405 159.307 173.405 159.614C173.405 160.226 176.914 164.877 177.388 164.877C177.61 164.877 178.446 163.93 179.226 162.789L180.646 160.7ZM89.3497 162.649C90.3524 162.649 89.7954 161.702 88.4307 161.062C87.6508 160.7 86.843 160.421 86.6203 160.449C86.0633 160.477 88.7649 162.649 89.3497 162.649ZM170.675 163.763C170.341 163.763 170.063 164.07 170.063 164.46C170.035 164.933 169.868 164.877 169.534 164.348C169.088 163.624 168.949 163.652 168.642 164.46C168.447 164.989 168.057 165.295 167.779 165.128C167.5 164.961 167.445 165.212 167.612 165.685C167.807 166.159 167.695 166.883 167.361 167.3C166.776 167.997 166.888 170.253 167.556 170.921C167.751 171.116 168.113 170.893 168.392 170.42C168.67 169.974 169.116 169.612 169.339 169.584C171.567 169.501 173.182 166.187 171.288 165.574C170.954 165.462 170.815 164.989 170.982 164.571C171.149 164.126 171.01 163.763 170.675 163.763ZM194.795 167.356C195.686 170.893 199.056 170.42 200.95 166.493L202.259 163.763L200.226 163.847C195.658 164.014 194.182 164.961 194.795 167.356ZM204.431 168.526C206.826 171.395 207.718 170.865 205.462 167.913C204.654 166.855 203.595 165.992 203.15 165.992C202.593 165.992 203.011 166.827 204.431 168.526ZM202.37 181.003C202.37 176.464 195.686 170.281 187.943 167.691C183.849 166.298 177.777 166.131 176.747 167.384C176.134 168.108 176.469 168.22 179.254 168.22C188.222 168.22 199.863 175.043 201.061 181.003C201.507 183.204 202.37 183.204 202.37 181.003ZM198.805 183.761C199.279 180.223 195.547 176.074 189.169 173.066C182.429 169.891 178.641 169.696 176.301 172.342C171.065 178.33 170.091 188.273 174.63 189.693C175.299 189.916 176.329 190.668 176.886 191.364C178.084 192.924 181.259 194.038 183.459 193.731C184.35 193.592 185.158 193.731 185.242 194.01C185.52 194.79 190.088 194.567 191.146 193.731C191.647 193.342 193.012 192.534 194.154 191.949C196.521 190.751 198.276 187.688 198.805 183.761ZM206.241 177.689C210.447 177.661 210.893 176.881 208.302 174.096C206.186 171.896 205.629 171.729 204.348 172.982C202.482 174.848 203.623 177.689 206.241 177.689ZM169.645 183.955C169.366 180.196 169.645 179.109 172.179 174.208C172.764 173.038 171.065 174.041 169.589 175.739C166.888 178.803 166.637 182.786 168.893 186.239L169.923 187.799L169.645 183.955ZM151.291 186.212C150.734 185.821 150.038 185.32 149.731 185.07C147.698 183.371 147.169 184.095 148.422 186.824C149.258 188.662 150.622 189.136 151.542 187.883C152.154 187.047 152.126 186.796 151.291 186.212Z" fill="#7B1E1E"/>
<path d="M147.758 150.321C147.842 150.423 147.902 150.505 147.936 150.567C147.97 150.629 147.986 150.689 147.986 150.745C147.986 150.813 147.941 150.892 147.851 150.982C147.766 151.073 147.681 151.118 147.597 151.118C147.484 151.118 147.393 151.101 147.325 151.067C147.258 151.033 147.201 150.979 147.156 150.906C147.066 150.77 146.955 150.655 146.825 150.559C146.695 150.457 146.492 150.406 146.215 150.406C145.978 150.406 145.707 150.46 145.402 150.567C145.102 150.674 144.888 150.807 144.758 150.965C144.645 151.107 144.546 151.321 144.461 151.609C144.382 151.898 144.342 152.177 144.342 152.448C144.342 152.776 144.413 153.079 144.554 153.355C144.701 153.626 144.91 153.844 145.181 154.008C145.458 154.172 145.789 154.254 146.173 154.254C146.382 154.254 146.597 154.214 146.817 154.135C147.043 154.05 147.238 153.915 147.402 153.728H147.393C147.495 153.621 147.622 153.567 147.775 153.567C147.865 153.567 147.95 153.607 148.029 153.686C148.114 153.765 148.156 153.844 148.156 153.923C148.156 154.008 148.142 154.084 148.114 154.152C148.091 154.214 148.046 154.285 147.978 154.364C147.746 154.624 147.472 154.802 147.156 154.898C146.839 154.994 146.461 155.042 146.02 155.042C145.631 155.042 145.235 154.949 144.834 154.762C144.438 154.576 144.133 154.35 143.919 154.084C143.806 153.92 143.695 153.686 143.588 153.381C143.486 153.07 143.436 152.818 143.436 152.626C143.436 152.135 143.509 151.669 143.656 151.228C143.808 150.782 144.034 150.426 144.334 150.16C144.532 149.979 144.817 149.844 145.19 149.754C145.563 149.663 145.905 149.618 146.215 149.618C146.594 149.618 146.89 149.672 147.105 149.779C147.325 149.881 147.543 150.062 147.758 150.321ZM152.873 153.567C152.873 153.833 152.816 154.047 152.703 154.211C152.59 154.375 152.395 154.536 152.119 154.694C151.932 154.807 151.718 154.895 151.475 154.957C151.232 155.013 150.986 155.042 150.737 155.042C150.585 155.042 150.407 155.013 150.203 154.957C150.006 154.895 149.845 154.835 149.72 154.779L149.576 154.652C149.322 154.443 149.144 154.276 149.042 154.152C148.946 154.022 148.898 153.864 148.898 153.677C148.898 153.53 148.932 153.42 149 153.347C149.068 153.273 149.178 153.237 149.331 153.237C149.409 153.237 149.483 153.262 149.551 153.313C149.619 153.364 149.678 153.434 149.729 153.525C149.87 153.773 150.037 153.957 150.229 154.076C150.426 154.189 150.658 154.245 150.924 154.245C151.172 154.245 151.424 154.169 151.678 154.016C151.887 153.886 151.992 153.759 151.992 153.635C151.992 153.415 151.893 153.231 151.695 153.084C151.503 152.937 151.226 152.804 150.864 152.686C150.644 152.607 150.314 152.46 149.873 152.245C149.573 152.098 149.35 151.917 149.203 151.703C149.056 151.488 148.983 151.262 148.983 151.025C148.983 150.81 149.056 150.601 149.203 150.398C149.356 150.189 149.539 150.033 149.754 149.931C149.867 149.875 150.048 149.816 150.297 149.754C150.545 149.686 150.732 149.652 150.856 149.652C151.087 149.652 151.288 149.68 151.458 149.737C151.627 149.787 151.794 149.861 151.958 149.957C152.206 150.098 152.39 150.225 152.509 150.338C152.627 150.451 152.687 150.593 152.687 150.762C152.687 150.864 152.647 150.954 152.568 151.033C152.494 151.112 152.365 151.152 152.178 151.152C152.133 151.152 152.087 151.132 152.042 151.093C151.997 151.053 151.941 150.994 151.873 150.915C151.782 150.796 151.695 150.717 151.61 150.677C151.587 150.672 151.494 150.635 151.331 150.567C151.172 150.499 150.975 150.465 150.737 150.465C150.511 150.465 150.311 150.519 150.136 150.626C149.96 150.728 149.873 150.878 149.873 151.076C149.873 151.273 150.051 151.434 150.407 151.559C150.785 151.706 151.099 151.833 151.348 151.94C151.602 152.047 151.848 152.174 152.085 152.321C152.356 152.485 152.554 152.657 152.678 152.838C152.808 153.019 152.873 153.262 152.873 153.567ZM157.962 150.321C158.047 150.423 158.106 150.505 158.14 150.567C158.174 150.629 158.191 150.689 158.191 150.745C158.191 150.813 158.146 150.892 158.055 150.982C157.971 151.073 157.886 151.118 157.801 151.118C157.688 151.118 157.598 151.101 157.53 151.067C157.462 151.033 157.406 150.979 157.36 150.906C157.326 150.855 157.248 150.79 157.123 150.711C156.999 150.626 156.858 150.556 156.699 150.499C156.541 150.437 156.394 150.406 156.259 150.406C156.038 150.406 155.809 150.46 155.572 150.567C155.341 150.669 155.154 150.801 155.013 150.965C154.894 151.112 154.787 151.333 154.691 151.626C154.595 151.915 154.547 152.189 154.547 152.448C154.547 152.776 154.617 153.079 154.759 153.355C154.906 153.626 155.115 153.844 155.386 154.008C155.663 154.172 155.993 154.254 156.377 154.254C156.587 154.254 156.764 154.223 156.911 154.16C157.064 154.098 157.228 154.008 157.403 153.889C157.538 153.804 157.643 153.742 157.716 153.703C157.796 153.663 157.883 153.643 157.979 153.643C158.07 153.643 158.154 153.683 158.233 153.762C158.318 153.841 158.36 153.92 158.36 153.999C158.36 154.146 158.273 154.293 158.098 154.44C157.883 154.615 157.685 154.748 157.504 154.838C157.324 154.923 157.137 154.98 156.945 155.008C156.759 155.03 156.519 155.042 156.225 155.042C155.835 155.042 155.44 154.949 155.038 154.762C154.643 154.576 154.338 154.35 154.123 154.084C154.01 153.92 153.9 153.686 153.792 153.381C153.691 153.07 153.64 152.818 153.64 152.626C153.64 152.146 153.722 151.683 153.886 151.237C154.05 150.79 154.284 150.432 154.589 150.16C154.793 149.974 155.044 149.838 155.343 149.754C155.648 149.663 155.942 149.618 156.225 149.618C156.587 149.618 156.897 149.677 157.157 149.796C157.423 149.915 157.691 150.09 157.962 150.321Z" fill="#7B1E1E"/>
<path d="M149.5 209.316C197.841 209.316 237.028 170.128 237.028 121.788C237.028 73.4473 197.841 34.2595 149.5 34.2595C101.159 34.2595 61.9717 73.4473 61.9717 121.788C61.9717 170.128 101.159 209.316 149.5 209.316Z" stroke="#7B1E1E" stroke-width="4"/>
</svg>
