<?xml version="1.0" encoding="UTF-8"?>
<svg id="Layer_3" data-name="Layer 3" xmlns="http://www.w3.org/2000/svg" xmlns:xlink="http://www.w3.org/1999/xlink" viewBox="0 0 160 160">
  <defs>
    <style>
      .cls-1 {
        fill: #d4f6ff;
      }

      .cls-2 {
        fill: #0069aa;
      }

      .cls-3, .cls-4 {
        fill: none;
      }

      .cls-5 {
        fill: #d4f6ff;
      }

      .cls-6 {
        fill: #0069aa;
      }

      .cls-7 {
        fill: #ffc715;
      }

      .cls-8 {
        fill: #002774;
      }

      .cls-9 {
        fill: #000a51;
      }

      .cls-10 {
        clip-path: url(#clippath);
      }

      .cls-4 {
        stroke: #000a51;
        stroke-miterlimit: 10;
        stroke-width: .75px;
      }
    </style>
    <clipPath id="clippath">
      <circle class="cls-3" cx="93.75" cy="78.26" r="37"/>
    </clipPath>
  </defs>
  <circle class="cls-4" cx="93.5" cy="78.02" r="38.75"/>
  <g>
    <path class="cls-9" d="M58.26,73.41l-.38-.02c-.13,0-.22-.03-.27-.08s-.08-.12-.07-.2.03-.14.09-.19c.06-.05.15-.07.28-.06l1.48.06c.13,0,.22.03.28.08s.08.12.08.2c0,.07-.03.13-.08.18-.05.05-.14.07-.25.07-.36,0-.68.19-.97.54-.4.48-.61,1.03-.63,1.65-.02.41.06.8.22,1.17.12.28.27.5.46.67.32.29.67.53,1.07.71.29.13.62.2.99.22l.93.04c.79.03,1.5-.23,2.11-.78.61-.55.93-1.21.96-1.97.02-.46-.06-.87-.25-1.24-.18-.37-.47-.73-.86-1.09-.09-.08-.13-.16-.12-.25,0-.08.03-.14.08-.18.05-.04.11-.07.18-.06.1,0,.24.1.43.29.38.36.65.77.83,1.21.18.44.26.88.24,1.33-.02.39-.11.77-.27,1.17-.13.3-.27.55-.43.74-.16.19-.43.43-.8.7-.37.28-.72.46-1.03.55-.31.09-.65.13-1.02.12l-1.08-.04c-.52-.02-1.05-.19-1.59-.49-.54-.3-.94-.71-1.21-1.21s-.4-1.04-.38-1.61c.04-.88.37-1.62,1-2.23Z"/>
    <path class="cls-9" d="M59.36,67.2l6.05,1.95,1.08-3.37-2.02-.65c-.12-.04-.2-.09-.24-.16-.04-.07-.04-.14-.02-.21.02-.07.07-.12.13-.16.07-.03.16-.03.29.01l2.53.81-1.8,5.61c-.04.12-.09.2-.16.24-.07.04-.13.04-.21.02-.08-.03-.13-.07-.16-.14-.03-.07-.02-.16.01-.28l.39-1.21-6.05-1.95-.39,1.21c-.04.12-.09.2-.15.24-.06.04-.13.04-.21.02-.08-.02-.13-.07-.16-.14-.03-.07-.03-.16.01-.28l.94-2.93c.04-.12.09-.2.15-.24.06-.04.13-.04.21-.02.08.02.13.07.16.14.03.07.02.16-.01.28l-.39,1.21Z"/>
    <path class="cls-9" d="M65.6,60.94l2.55,1.68,2.26-3.42-1.31-.87c-.11-.07-.17-.14-.19-.21s0-.14.04-.21c.04-.07.1-.11.18-.12.07,0,.16.02.27.09l1.76,1.16-3.24,4.91c-.07.11-.14.17-.21.19-.07.02-.14,0-.2-.04-.07-.04-.11-.1-.12-.18-.01-.07.02-.16.09-.27l.4-.6-5.31-3.51-.4.6c-.07.11-.14.17-.21.19-.07.02-.14,0-.21-.04-.07-.04-.11-.1-.12-.18-.01-.07.02-.16.09-.27l3.09-4.68,1.53,1.01c.11.07.17.14.19.21.02.07,0,.14-.04.21-.04.07-.1.11-.17.12-.07.01-.16-.02-.27-.09l-1.09-.72-2.11,3.19,2.31,1.53,1.05-1.59-.5-.33c-.11-.07-.17-.14-.19-.21-.02-.07,0-.14.04-.21.04-.06.1-.1.17-.11.07-.01.16.02.27.09l1.45.96c.11.07.17.14.19.21.02.07,0,.14-.04.2-.04.07-.1.11-.18.12-.07.01-.16-.02-.27-.09l-.5-.33-1.05,1.59Z"/>
    <path class="cls-9" d="M74.32,52.62l-2.63,2.31.75,1.94.77-.67c.09-.08.18-.12.25-.12.07,0,.14.03.19.09.05.06.07.12.06.2,0,.07-.06.15-.16.24l-1.5,1.31c-.1.08-.18.12-.26.12-.08,0-.14-.03-.19-.09-.05-.06-.07-.13-.07-.2,0-.07.06-.15.16-.23l.31-.27-2.42-6.34-1.18,1.04c-.1.08-.18.12-.25.12s-.14-.03-.19-.09c-.05-.06-.08-.13-.07-.2,0-.07.06-.15.16-.24l2.02-1.77,6.5,3.47.31-.27c.1-.08.18-.12.25-.12.07,0,.14.03.19.09.05.06.07.12.06.2,0,.08-.06.15-.15.24l-1.49,1.31c-.1.09-.19.13-.26.13-.08,0-.14-.03-.19-.09-.05-.06-.08-.13-.07-.2,0-.07.06-.15.16-.24l.76-.67-1.83-.98ZM73.81,52.36l-3.66-1.95-.15.13,1.48,3.86,2.33-2.04Z"/>
    <path class="cls-9" d="M83.43,50.26l-.62.3-6.42-4.29,2.65,5.51.89-.43c.12-.06.21-.07.28-.05.07.02.12.07.16.14.03.07.04.14,0,.21-.03.07-.1.13-.22.19l-1.77.85c-.12.06-.21.07-.28.05-.07-.02-.12-.07-.16-.14-.03-.07-.04-.14,0-.21.03-.07.1-.13.22-.19l.4-.19-2.75-5.73-.65.31c-.11.05-.21.07-.28.05-.07-.02-.12-.07-.16-.14-.04-.07-.04-.14,0-.21.03-.07.1-.13.21-.18l1.26-.61,6.43,4.3-2.65-5.52-.89.43c-.11.06-.21.07-.28.05-.07-.02-.12-.07-.16-.14-.03-.07-.04-.14-.01-.21s.1-.13.22-.19l1.77-.85c.12-.05.21-.07.28-.05.07.02.12.07.16.14.03.07.04.14,0,.21s-.1.13-.21.18l-.41.2,2.98,6.21Z"/>
    <path class="cls-2" d="M89.08,41.9l-.03-.17c-.02-.12-.01-.22.02-.28.04-.06.1-.1.18-.12.08-.01.15,0,.21.05.06.04.1.13.12.25l.24,1.34c.02.12.01.22-.02.28s-.1.1-.18.12c-.08.01-.14,0-.2-.04s-.1-.12-.12-.23c-.08-.35-.32-.63-.71-.85-.39-.22-.86-.28-1.41-.18-.58.1-1.01.34-1.3.69-.29.36-.4.74-.32,1.14.04.21.12.39.25.54.13.15.28.27.46.35.18.08.37.13.58.16.21.03.54.04.97.03.73-.01,1.25.02,1.54.09.39.1.71.27.94.53.24.25.39.58.46.97.11.6-.04,1.15-.44,1.66-.4.51-1.01.84-1.82.98-.91.16-1.69,0-2.34-.46l.06.3c.02.12.01.22-.03.28-.04.06-.1.1-.18.12-.08.01-.14,0-.2-.05-.06-.04-.1-.13-.12-.25l-.26-1.45c-.02-.13-.01-.23.02-.29s.1-.1.18-.12c.08-.01.14,0,.2.04.06.04.1.12.12.23.09.38.36.69.8.94.45.24,1,.31,1.66.19.66-.12,1.15-.38,1.47-.77.32-.4.44-.82.36-1.27-.05-.27-.17-.51-.35-.69-.18-.19-.43-.32-.74-.39-.22-.05-.65-.07-1.3-.07-.9,0-1.56-.1-2-.33-.44-.23-.71-.62-.8-1.18-.1-.55.04-1.06.41-1.54.37-.47.91-.78,1.63-.91.73-.13,1.41-.01,2.02.35Z"/>
    <path class="cls-2" d="M95.27,45.55l-.23,2.5,1.82.17c.13.01.21.04.27.1.05.05.07.12.06.2,0,.08-.04.14-.1.18-.06.04-.15.06-.28.05l-3.07-.28c-.13-.01-.21-.04-.26-.1s-.07-.12-.06-.2c0-.08.04-.14.1-.19.06-.04.15-.06.28-.05l.71.06.58-6.33-.71-.06c-.13-.01-.21-.04-.27-.1-.05-.05-.07-.12-.06-.2,0-.08.04-.14.1-.19s.15-.06.28-.05l3.08.28c.73.07,1.31.34,1.73.81.42.47.61,1,.55,1.57-.03.34-.13.64-.31.9s-.37.46-.6.6c-.34.21-.68.35-1.03.43-.25.06-.56.07-.92.04l-1.66-.15ZM95.32,45.02l1.69.15c.39.04.77-.02,1.13-.16s.63-.33.81-.57c.18-.24.28-.49.31-.75.04-.42-.11-.81-.43-1.17-.33-.37-.77-.57-1.31-.62l-1.89-.17-.3,3.3Z"/>
    <path class="cls-2" d="M106.18,48.71l-3.28-1.24-1.36,1.57.96.36c.12.04.2.1.23.16.03.07.04.14,0,.21-.03.07-.08.12-.14.15-.07.03-.16.02-.28-.03l-1.86-.7c-.12-.04-.2-.1-.23-.17-.03-.07-.04-.14-.01-.21.03-.08.08-.12.15-.15.07-.03.16-.02.28.03l.38.15,4.45-5.12-1.47-.56c-.12-.04-.2-.1-.23-.17-.04-.06-.04-.13,0-.21.03-.07.08-.12.15-.15.07-.03.16-.02.28.03l2.51.95v7.37s.38.15.38.15c.12.04.2.1.23.17.03.06.04.13,0,.21-.03.07-.07.12-.15.15-.07.03-.16.02-.28-.03l-1.86-.7c-.12-.05-.2-.1-.24-.17-.03-.07-.04-.14,0-.21.03-.08.08-.13.14-.15.07-.03.17-.02.29.03l.95.36v-2.08ZM106.18,48.14v-4.15s-.19-.07-.19-.07l-2.71,3.12,2.9,1.1Z"/>
    <path class="cls-2" d="M116.31,50.1l.22-.3c.08-.1.15-.16.22-.18.07-.02.14,0,.21.05.06.05.1.11.11.18s-.03.16-.1.26l-.88,1.19c-.08.11-.15.17-.22.18-.07.02-.14,0-.21-.05-.06-.04-.09-.1-.1-.17,0-.07.02-.15.08-.25.19-.3.22-.67.09-1.11-.17-.59-.51-1.08-1.02-1.45-.33-.24-.7-.4-1.1-.47-.3-.06-.57-.05-.81,0-.42.1-.82.26-1.19.49-.27.17-.52.4-.74.7l-.55.75c-.47.64-.65,1.37-.53,2.18.12.81.48,1.44,1.1,1.9.37.27.76.43,1.17.49.41.05.87.02,1.38-.1.11-.03.2-.02.27.04.06.04.1.1.11.17.01.07,0,.13-.05.18-.06.08-.22.14-.48.2-.51.11-1,.11-1.46.02-.47-.1-.88-.28-1.24-.54-.31-.23-.58-.52-.82-.88-.18-.27-.3-.53-.37-.77-.07-.24-.12-.59-.13-1.06-.02-.46.02-.85.12-1.16.1-.31.25-.61.47-.91l.64-.88c.31-.42.74-.77,1.29-1.05.55-.27,1.11-.39,1.68-.33.57.05,1.08.25,1.54.59.71.52,1.14,1.21,1.3,2.07Z"/>
    <path class="cls-2" d="M117.74,55.86l-2.39,1.9,2.55,3.21,1.23-.98c.1-.08.19-.12.26-.11.07,0,.13.04.19.1.05.06.07.13.06.2s-.07.15-.17.23l-1.65,1.31-3.66-4.61c-.08-.1-.12-.19-.11-.26,0-.08.04-.14.1-.18.06-.05.13-.07.2-.06.07.01.15.07.23.17l.45.56,4.98-3.96-.45-.56c-.08-.1-.12-.19-.11-.26,0-.07.04-.13.1-.18.06-.05.13-.07.2-.06s.15.07.23.17l3.48,4.39-1.44,1.14c-.1.08-.19.12-.26.11-.07,0-.13-.04-.18-.1s-.07-.13-.06-.2.07-.15.17-.23l1.02-.81-2.38-2.99-2.17,1.72,1.19,1.5.47-.38c.1-.08.19-.12.26-.11.07,0,.14.04.19.1.05.06.07.13.05.2s-.07.15-.17.23l-1.36,1.08c-.1.08-.19.12-.26.11-.07,0-.13-.04-.18-.1-.05-.06-.07-.13-.06-.21.01-.07.07-.15.17-.23l.47-.38-1.19-1.5Z"/>
  </g>
  <g class="cls-10">
    <path class="cls-2" d="M91.99,67.67l-.35.12c-.83,1.82-2.48,3.41-4.3,4.23-1.19.54-3.01.79-3.91,1.78-1.28,1.4-2.04,4.48-2.86,6.26-2.84,4.58-6.26,10.6-9.85,14.59-1.44,1.6-3.66,3.23-5.28,4.87-.6.6-.52.97.37.67.64-.22,3.26-2.11,3.59-1.82l-.28,1.58c2.12-.4,1.93-3,2.71-4.14.54-.79,2.77-2.38,3.62-3.22,2.45-2.41,5.05-5.7,6.86-8.62.77-1.24,2.18-5.38,3.39-5.82.4-.15.78-.03.78-.03l.1,2.34c.05,1.19.71,3.01.92,4.46.86,5.96-2.76,6.74-4.04,11.34-1.16,4.18,1.72,9.43,4.91,12.04,4.69,3.84,14.19,6.33,15.53,13.03.66,3.28-2.45,4.71-5.35,5.76-4.79,1.73-8.38-.18-11.07-2.21-3.69-2.78-5.92-1.87-8.25-1.75-2.2.12,5.54,3.13,7.45,3.95,4.54,1.92,9.3,2.65,13.63,2.73,10.64.2,14.7-5.53,11.26-16.11-2.81-8.63-9.89-11.46-14.28-18.42-3.02-4.77-1.75-6.63,1.16-11.44,1.26-2.08,1.81-3.15.12-5.69-.34-.51-1.41-1.3-1.27-1.88.23-.5-1.72,1.95-1.43,2.22,1.63,1.49,2.3-.88,3.93.61.26.23,2.17,1.99,2.44,2.23l1.63,1.49c1.1,1,2.45,1.44,3.91,1.03,2.23-.62,5.2-6.98,6.15-9.1.38-.84.81-2.13,1.46-2.84,1.06-1.15,2.08-1.84,4.74-2.49,1.63-.4-.91-.48-1.91-.33-3.43.54-4.39,2.59-6.17,4.94-.78,1.03-4.43,5.79-5.28,6.06-.6.19-1.17-.17-1.64-.5-2.52-1.77-5.06-5.38-7.8-6.48-.96-.39-2.31-.44-3.11-1.17-.74-.68-.81-1.84-1.22-2.69-.09-.19-.9-1.53-.98-1.58Z"/>
    <path class="cls-6" d="M119.13,70.25c-.39.4-3.22,1.14-3.54,0,1.34.36,4.18-.66,3.54,0Z"/>
    <path class="cls-8" d="M130.67,59.98c2.47.4,1.9.25,2.83-1.38,2.09-3.67,4.79-7.18,9.45-7.22-.9-1.53-2.69-1.93-4.37-1.9-4.76.1-7.53,6.42-7.9,10.51Z"/>
    <path class="cls-8" d="M127.71,60.04h1.43c1.59-4.58,2.98-11.14,8.38-12.47.42-.46-4.33-2.26-5.27-2.08-.65.13-1.98,1.11-2.61,3.29,0,0-.97,2.84-1.17,3.82-.37,1.83-.77,7.43-.77,7.43Z"/>
    <path class="cls-8" d="M65.4,130.18c-.68-.57-.85,1.99-.86,2.28-.1,3.55.73,7.5,2.65,10.5,1.55,2.44,3.83,3.82,6.23,5.34.15-.7.3-1.14.95-1.29,4.13-.98,11.43.91,15.08,4.09.62.54.84.91,1.24,1.18.75.52,4.35,2.48,6.76,2.01l-1.31-1.47c-2.87-1.55-5.34-4.01-8.14-5.59-3.66-2.06-7.87-2.69-11.71-4.3-5.32-2.23-10.16-6.76-10.89-12.75Z"/>
    <path class="cls-8" d="M96.35,57.41s.5.38.43.52c-2.59,3.37-6.29,7.3-10.94,7.02-.77-.05-2.65-.72-3.17-.52-.23.09-.23.23-.27.43-.22,1.29,1.87,1.54,2.86,1.36-.07.24-.69.51-.9.6-1.4.56-2.87.44-3.7-.97-1.05-1.8.6-3.86,2.54-3.69.9.08,1.62.66,2.52.72,3.87.25,5.2-2.46,7.67-4.53.92-.77,1.74-1.48,2.95-.94Z"/>
    <path class="cls-7" d="M128.42,118.64c2.41-.56,4.25-1.35,5.16-3.78.45-1.21.42-2.29.7-3.44.07-.27.06-.57.42-.63.53,1.91.74,4.16,2.25,5.59,1.31,1.25,3.34,1.37,4.95,2.02-.97.75-2.27.9-3.34,1.48-2.59,1.4-2.23,3.44-2.98,5.89-.08.26-.07.57-.43.63-.44-2.3-1.28-5.34-3.66-6.28-.22-.09-3.73-.7-3.07-1.47Z"/>
    <path class="cls-8" d="M89.31,55.9c1.33-.29,3.49-.31,4.61.54-2.25,1.3-3.75,4.29-6.2,5.21-3.98,1.49-2.51-3.13-.65-4.61.49-.39,1.63-1.01,2.23-1.14Z"/>
    <path class="cls-6" d="M97.36,59.19c.51,1.78-.12,3.83,1.11,5.37-.95.53-1.03.18-.83,1.38l-.82.62c.08.19.93,1.72-.07,2.13-1.05.52-4.3-1.81-4.46-2.96-.24-1.65,1.37-2.43,2.25-3.38.82-.88,1.56-2.07,2.31-2.86.16-.17.23-.35.52-.29ZM97.02,63.24c-.12-1.18-.89-1.75-1.59-.57.44.39,1.01.65,1.59.57Z"/>
    <path class="cls-8" d="M90.46,65.16c.18.16-.94,1.82-1.14,2.05-1.85,2.25-6.33,4.61-8.83,2.15-.79-.78-1.11-1.72-.19-2.53,3.07,3.1,6.92-.96,10.15-1.67Z"/>
    <path class="cls-8" d="M134.85,126.99l4.33-47.26,2.1.19s-2.18,21.32-4.33,47.26c-.04.53-2.1-.19-2.1-.19Z"/>
    <path class="cls-5" d="M93.56,103.11c.15-.18.94.54,1.2.6.49.11,1.59-.05,1.91-.43.25-.3.05-.92.43-1.2,1.17.91.53,2.23-.7,2.7-1.63.62-2.93.29-2.84-1.68Z"/>
    <path class="cls-5" d="M96.47,106.51c.72-.13.75.33.74.92-.02,1.46-1.48,2.48-2.88,2.04-.69-.21-1.56-1.49-.89-2.13.91,1.75,2.93.95,3.03-.83Z"/>
    <path class="cls-5" d="M96.8,96.65c-.72.71-2.42.61-2.29-.6.62.45,1.24.47,1.84-.03.22-.11.23-.88.48-.81.56.17.3,1.1-.03,1.43Z"/>
    <path class="cls-5" d="M89.15,99.71c.71.16,1.19,1.13,1.9,1.14s1.32-.79,1.86-1.13c.54.5.37,1.12-.11,1.58-1.4,1.34-3.87.47-3.65-1.59Z"/>
    <path class="cls-5" d="M100.37,112.61c.73-.14,1.55.57,2.22.3.65-.26.93-1.25,1.31-1.78.7.24.78.88.51,1.49-.8,1.79-3.45,1.97-4.05-.01Z"/>
    <path class="cls-5" d="M98.83,107.2c.73-.14,1.55.57,2.22.3s.93-1.25,1.31-1.78c.7.24.78.88.51,1.49-.8,1.79-3.45,1.97-4.05-.01Z"/>
    <path class="cls-5" d="M107.87,118.54c-.31-.28-.92-1.16-.39-1.49,1.33,1.14,2.35,1.22,3.03-.58.48-.38.28,1.38.16,1.66-.06.14-.81.71-.98.78-.66.29-1.32.11-1.83-.37Z"/>
    <path class="cls-5" d="M106.34,110.92c.03-.16.93-.04,1.16-.12.7-.24,1.04-1.13.7-1.79,2.48,1.1-.69,4.16-1.86,1.91Z"/>
    <path class="cls-5" d="M103.81,108.95c0-.19,1.03-.29,1.27-.44.72-.46.9-1.53.36-2.18,3.03.55.19,4.8-1.63,2.62Z"/>
    <path class="cls-5" d="M95.01,99.48c.12-.17,1.15.4,1.47.42.98.06,1.89-.78,1.84-1.69,2.41,2.42-3.15,4.36-3.32,1.26Z"/>
    <path class="cls-5" d="M84.87,101.55c.63.79,1.38,1.54,2.52,1.35.56-.09,1.05-1.33,1.29.27-1.54,1.86-3.77.53-3.81-1.62Z"/>
    <path class="cls-5" d="M109.64,119.91c.55,2.82-3.92,3.66-3.65.51.58-.08.33.69.92.92.49.19,1.49.09,1.9-.26l.83-1.16Z"/>
    <path class="cls-5" d="M96.14,110.8c.48-.03.48.5,1.03.61,1.63.33,1.51-1.05,2.25-1.54.39-.26.35.52.31.79-.34,1.96-3.44,2.49-3.59.15Z"/>
    <path class="cls-5" d="M93.6,90.34l-.09.89c-1.2.82-1.25-.95.09-.89Z"/>
    <path class="cls-7" d="M71.12,86.84c-2.26.52-4,1.26-4.85,3.54-.42,1.13-.4,2.14-.66,3.21-.06.26-.06.54-.4.59-.5-1.78-.7-3.89-2.12-5.23-1.24-1.17-3.14-1.28-4.66-1.89.91-.7,2.14-.85,3.14-1.38,2.44-1.31,2.1-3.22,2.81-5.5.07-.24.07-.54.4-.59.42,2.15,1.21,4.99,3.44,5.87.21.08,3.51.65,2.89,1.38Z"/>
    <path class="cls-7" d="M113.76,81.59c2.55-.56,4.5-1.35,5.47-3.76.48-1.19.45-2.26.75-3.4.07-.27.07-.57.45-.63.56,1.88.77,4.11,2.36,5.52,1.39,1.23,3.53,1.35,5.23,1.99-1.02.74-2.41.9-3.54,1.47-2.75,1.39-2.37,3.41-3.17,5.83-.09.26-.08.57-.46.62-.46-2.27-1.34-5.28-3.86-6.2-.24-.09-3.95-.68-3.24-1.45Z"/>
    <path class="cls-7" d="M128.32,65.9c-1.54.29-2.72.73-3.34,2.17-.31.72-.32,1.37-.52,2.05-.05.16-.05.34-.28.37-.3-1.15-.38-2.51-1.31-3.4-.81-.77-2.09-.89-3.09-1.31.63-.43,1.46-.5,2.14-.82,1.67-.79,1.48-2.03,2.01-3.48.06-.15.06-.34.28-.37.23,1.39.7,3.23,2.19,3.84.14.06,2.35.49,1.91.94Z"/>
    <path class="cls-5" d="M102.38,115.53c.93.21,1.23,1.05,2.31.69.43-.14,1.32-1.08,1.38-.26.14,2.09-3.97,2.23-3.68-.44Z"/>
    <path class="cls-5" d="M98.96,103.94c.59-.28,1.55.2,2.05-.19.48-.38.4-1.36.56-1.93.7.08.98.66.95,1.28-.1,1.83-2.37,2.55-3.56.83Z"/>
    <path class="cls-5" d="M88.25,105.92c.72-.09,1.49.67,2.17.45s.98-1.18,1.38-1.68c.67.29.72.93.42,1.52-.88,1.72-3.5,1.72-3.97-.29Z"/>
    <path class="cls-8" d="M96.39,125.14c.2.19.89.28,1.05,0,.07-.12.15-2.44.13-2.77-.53-6.65-5.45-7.86-9.91-11.15-4.64-3.43-8.41-7.8-7.46-14.02.56-3.67,3.55-7.13,3.93-10.93.02-.18.11-.61-.17-.56-2.02,3.77-4.91,6.97-7.18,10.59-2.73,4.37-4.79,8.7-2.67,13.84,3.31,8.01,10.23,6.33,15.96,10.64,1.53,1.16,2.87,3.32,5.32,4.87-.65-3.16-2.7-5.76-4.85-7.48-3.22-2.58-7.54-3.61-10.46-6.55-3.18-3.19-3.93-8.15-2.51-12.35.21-.63.58-1.42,1.22-1.68-.17,3.13-.81,6.52.46,9.53,2.87,6.8,12.1,6.91,15.38,13.2.43.82,1.56,4.63,1.75,4.81Z"/>
    <path class="cls-8" d="M71.99,109.41c-.48-.4-.6,1.4-.6,1.6-.07,2.5.52,5.28,1.86,7.4,1.09,1.72,2.7,2.69,4.39,3.76.1-.5.21-.8.67-.91,2.91-.69,8.05.64,10.62,2.88.44.38.59.64.88.83.53.36,3.06,1.75,4.76,1.41l-.92-1.04c-2.02-1.09-3.76-2.83-5.73-3.94-2.58-1.45-5.54-1.89-8.25-3.03-3.75-1.57-7.15-4.76-7.67-8.98Z"/>
    <path class="cls-5" d="M87.7,96.22c-.71.2-1.99.09-2.55-.49-.59-.61-.69-2.47.41-2.39.15,1.06.04,1.94,1.48,1.96.65.01,1.55-.61,1.44.51-.06.08-.63.37-.77.41Z"/>
    <path class="cls-5" d="M84.5,97.22c.82.35.94,1.18,1.99,1.04.42-.06,1.4-.76,1.31,0-.24,1.95-4.03,1.35-3.3-1.05Z"/>
    <path class="cls-5" d="M91.97,98.39c-1.43.44-3.43-.94-2.31-2.47.39,1.05,1.14,1.53,2.26,1.31.36.02.98-1.02,1.22-.74.55.63-.51,1.71-1.17,1.91Z"/>
  </g>
  <path class="cls-1" d="M86.49,83.55c1.13.77,2.72,1.05,3.87.3.81-.53,1.12-1.68,1.05-2.71-.73,1.68-1.91,2.79-4.92,2.41Z"/>
  <path class="cls-1" d="M95.24,83.32c.87.84,2.28.97,2.99.51s1.22-1.32,1.31-2.24c-.88,1.37-2.05,2.08-4.3,1.73Z"/>
  <text/>
</svg>