<svg width="1528" height="796" viewBox="0 0 1528 796" fill="none" xmlns="http://www.w3.org/2000/svg">
<path d="M484.209 703H480.059V673.337H470.513V669.675H493.779V673.337H484.209V703ZM522.246 703H518.071V687.131H502.617V703H498.442V669.675H502.617V683.469H518.071V669.675H522.246V703ZM552.129 699.338V703H530.571V669.675H551.665V673.337H534.746V683.933H548.174V687.326H534.746V699.338H552.129ZM570.464 703V669.675H583.647C586.968 669.675 589.425 670.489 591.021 672.116C592.632 673.744 593.438 675.632 593.438 677.78C593.438 681.556 591.468 684.063 587.529 685.3C589.873 685.902 591.615 686.976 592.754 688.522C593.893 690.069 594.463 691.818 594.463 693.771C594.463 696.392 593.576 698.589 591.802 700.363C590.044 702.121 587.326 703 583.647 703H570.464ZM574.492 683.957H581.743C584.754 683.957 586.764 683.387 587.773 682.248C588.783 681.092 589.287 679.742 589.287 678.195C589.287 676.665 588.742 675.428 587.651 674.484C586.577 673.54 584.966 673.068 582.817 673.068H574.492V683.957ZM574.492 699.338H583.428C585.609 699.338 587.293 698.809 588.481 697.751C589.67 696.693 590.264 695.318 590.264 693.625C590.264 692.437 589.995 691.338 589.458 690.329C588.921 689.304 588.164 688.514 587.188 687.961C586.211 687.408 584.754 687.131 582.817 687.131H574.492V699.338ZM622.246 699.338V703H600.688V669.675H621.782V673.337H604.863V683.933H618.291V687.326H604.863V699.338H622.246ZM624.419 694.138L628.179 693.283C629.692 697.824 632.972 700.095 638.018 700.095C640.654 700.095 642.64 699.541 643.975 698.435C645.309 697.312 645.977 695.814 645.977 693.942C645.977 692.526 645.464 691.387 644.438 690.524C643.429 689.662 642.257 689.068 640.923 688.742L634.258 687.082C632.533 686.643 631.117 686.114 630.01 685.495C628.919 684.86 627.992 683.892 627.227 682.59C626.462 681.288 626.079 679.799 626.079 678.122C626.079 675.339 627.129 673.125 629.229 671.481C631.328 669.821 634.022 668.991 637.31 668.991C643.364 668.991 647.344 671.734 649.248 677.219L645.464 678.342C645.024 676.389 643.991 674.916 642.363 673.923C640.736 672.914 639.002 672.409 637.163 672.409C635.34 672.409 633.713 672.889 632.28 673.85C630.864 674.81 630.156 676.169 630.156 677.927C630.156 680.384 631.963 682.045 635.576 682.907L641.802 684.396C647.498 685.764 650.347 688.832 650.347 693.601C650.347 696.481 649.272 698.882 647.124 700.803C644.992 702.707 641.981 703.659 638.091 703.659C631.19 703.659 626.632 700.485 624.419 694.138ZM665.557 703H661.406V673.337H651.86V669.675H675.127V673.337H665.557V703ZM712.261 691.794L716.069 692.648C714.246 699.989 710.129 703.659 703.716 703.659C699.5 703.659 696.188 701.958 693.779 698.557C691.387 695.155 690.19 690.972 690.19 686.008C690.19 680.881 691.444 676.763 693.95 673.654C696.457 670.546 699.818 668.991 704.033 668.991C710.283 668.991 714.295 672.564 716.069 679.709L712.139 680.49C710.706 675.184 707.996 672.531 704.009 672.531C701.063 672.531 698.776 673.768 697.148 676.242C695.537 678.7 694.731 682.159 694.731 686.618C694.731 690.703 695.562 693.983 697.222 696.457C698.882 698.915 701.079 700.144 703.813 700.144C708.062 700.144 710.877 697.36 712.261 691.794ZM740.923 699.338V703H721.245V669.675H725.518V699.338H740.923ZM767.314 699.338V703H745.757V669.675H766.851V673.337H749.932V683.933H763.359V687.326H749.932V699.338H767.314ZM795.586 703H791.313L787.944 693.259H775.615L772.637 703H769.146L779.961 669.675H784.722L795.586 703ZM787.065 690.134L781.938 674.118L776.763 690.134H787.065ZM824.492 703H820.439L803.203 673.947L803.252 676.145C803.301 676.975 803.325 677.674 803.325 678.244V703H799.956V669.675H805.181L821.294 696.848L821.245 694.528C821.213 693.617 821.196 692.811 821.196 692.111V669.675H824.492V703ZM836.992 703H832.817V669.675H836.992V703ZM869.854 703H865.801L848.564 673.947L848.613 676.145C848.662 676.975 848.687 677.674 848.687 678.244V703H845.317V669.675H850.542L866.655 696.848L866.606 694.528C866.574 693.617 866.558 692.811 866.558 692.111V669.675H869.854V703ZM902.861 686.203V703.439H900.298L899.15 699.265C897.1 702.194 894.048 703.659 889.995 703.659C885.601 703.659 882.183 702.007 879.741 698.703C877.3 695.399 876.079 691.387 876.079 686.667C876.079 681.621 877.373 677.414 879.961 674.045C882.549 670.676 886.064 668.991 890.508 668.991C896.644 668.991 900.648 672.214 902.52 678.659L898.564 679.611C897.995 677.137 896.929 675.339 895.366 674.216C893.804 673.093 892.095 672.531 890.239 672.531C886.951 672.531 884.526 673.858 882.964 676.511C881.401 679.164 880.62 682.492 880.62 686.496C880.62 690.809 881.491 694.187 883.232 696.628C884.99 699.053 887.375 700.266 890.386 700.266C892.729 700.266 894.683 699.493 896.245 697.946C897.824 696.384 898.613 694.235 898.613 691.501C898.613 690.996 898.597 690.394 898.564 689.694H890.312V686.203H902.861ZM927.227 703H923.052V669.675H943.462V673.337H927.227V683.859H940.679V687.229H927.227V703ZM959.16 703.659C954.88 703.659 951.543 701.999 949.15 698.679C946.758 695.342 945.562 691.257 945.562 686.423C945.562 681.377 946.815 677.211 949.321 673.923C951.828 670.635 955.148 668.991 959.282 668.991C963.4 668.991 966.704 670.611 969.194 673.85C971.685 677.072 972.93 681.141 972.93 686.057C972.93 690.777 971.717 694.895 969.292 698.41C966.883 701.91 963.506 703.659 959.16 703.659ZM959.258 700.266C962.171 700.266 964.45 698.939 966.094 696.286C967.738 693.633 968.56 690.215 968.56 686.032C968.56 681.735 967.705 678.391 965.996 675.998C964.303 673.605 962.049 672.409 959.233 672.409C956.385 672.409 954.123 673.703 952.446 676.291C950.77 678.879 949.932 682.264 949.932 686.447C949.932 690.533 950.778 693.861 952.471 696.433C954.163 698.988 956.426 700.266 959.258 700.266ZM1003.18 703H998.809L992.656 688.571H983.11V703H979.204V669.675H992.339C995.903 669.675 998.54 670.651 1000.25 672.604C1001.97 674.541 1002.84 676.665 1002.84 678.977C1002.84 680.751 1002.36 682.451 1001.4 684.079C1000.44 685.707 998.849 686.87 996.636 687.57L1003.18 703ZM983.11 685.178H991.826C994.121 685.178 995.83 684.576 996.953 683.371C998.092 682.15 998.662 680.661 998.662 678.903C998.662 677.146 998.06 675.778 996.855 674.802C995.667 673.825 994.162 673.337 992.339 673.337H983.11V685.178ZM1044.19 669.675L1033.04 688.986V703H1028.86V688.986L1017.71 669.675H1022.61L1031.47 685.007L1040.39 669.675H1044.19ZM1057.65 703.659C1053.37 703.659 1050.03 701.999 1047.64 698.679C1045.24 695.342 1044.05 691.257 1044.05 686.423C1044.05 681.377 1045.3 677.211 1047.81 673.923C1050.31 670.635 1053.63 668.991 1057.77 668.991C1061.89 668.991 1065.19 670.611 1067.68 673.85C1070.17 677.072 1071.42 681.141 1071.42 686.057C1071.42 690.777 1070.2 694.895 1067.78 698.41C1065.37 701.91 1061.99 703.659 1057.65 703.659ZM1057.74 700.266C1060.66 700.266 1062.94 698.939 1064.58 696.286C1066.22 693.633 1067.05 690.215 1067.05 686.032C1067.05 681.735 1066.19 678.391 1064.48 675.998C1062.79 673.605 1060.54 672.409 1057.72 672.409C1054.87 672.409 1052.61 673.703 1050.93 676.291C1049.26 678.879 1048.42 682.264 1048.42 686.447C1048.42 690.533 1049.26 693.861 1050.96 696.433C1052.65 698.988 1054.91 700.266 1057.74 700.266ZM1096.68 669.675H1100.15V691.428C1100.15 695.79 1099.08 698.923 1096.93 700.827C1094.8 702.715 1092 703.659 1088.53 703.659C1084.67 703.659 1081.82 702.683 1079.96 700.729C1078.11 698.776 1077.18 695.676 1077.18 691.428V669.675H1081.35V691.428C1081.35 694.016 1081.65 695.839 1082.26 696.896C1082.86 697.954 1083.77 698.736 1084.99 699.24C1086.21 699.745 1087.49 699.997 1088.82 699.997C1091.39 699.997 1093.35 699.322 1094.68 697.971C1096.02 696.62 1096.68 694.439 1096.68 691.428V669.675ZM1131.99 703H1127.62L1121.46 688.571H1111.92V703H1108.01V669.675H1121.15C1124.71 669.675 1127.35 670.651 1129.06 672.604C1130.78 674.541 1131.65 676.665 1131.65 678.977C1131.65 680.751 1131.17 682.451 1130.21 684.079C1129.24 685.707 1127.66 686.87 1125.44 687.57L1131.99 703ZM1111.92 685.178H1120.63C1122.93 685.178 1124.64 684.576 1125.76 683.371C1126.9 682.15 1127.47 680.661 1127.47 678.903C1127.47 677.146 1126.87 675.778 1125.66 674.802C1124.48 673.825 1122.97 673.337 1121.15 673.337H1111.92V685.178ZM1151.18 703V669.675H1164.36C1167.68 669.675 1170.14 670.489 1171.73 672.116C1173.34 673.744 1174.15 675.632 1174.15 677.78C1174.15 681.556 1172.18 684.063 1168.24 685.3C1170.59 685.902 1172.33 686.976 1173.47 688.522C1174.61 690.069 1175.18 691.818 1175.18 693.771C1175.18 696.392 1174.29 698.589 1172.51 700.363C1170.76 702.121 1168.04 703 1164.36 703H1151.18ZM1155.21 683.957H1162.46C1165.47 683.957 1167.48 683.387 1168.49 682.248C1169.5 681.092 1170 679.742 1170 678.195C1170 676.665 1169.45 675.428 1168.36 674.484C1167.29 673.54 1165.68 673.068 1163.53 673.068H1155.21V683.957ZM1155.21 699.338H1164.14C1166.32 699.338 1168.01 698.809 1169.19 697.751C1170.38 696.693 1170.98 695.318 1170.98 693.625C1170.98 692.437 1170.71 691.338 1170.17 690.329C1169.63 689.304 1168.88 688.514 1167.9 687.961C1166.92 687.408 1165.47 687.131 1163.53 687.131H1155.21V699.338ZM1200.4 669.675H1203.86V691.428C1203.86 695.79 1202.79 698.923 1200.64 700.827C1198.51 702.715 1195.71 703.659 1192.24 703.659C1188.38 703.659 1185.53 702.683 1183.67 700.729C1181.82 698.776 1180.89 695.676 1180.89 691.428V669.675H1185.06V691.428C1185.06 694.016 1185.36 695.839 1185.97 696.896C1186.57 697.954 1187.48 698.736 1188.7 699.24C1189.92 699.745 1191.2 699.997 1192.53 699.997C1195.11 699.997 1197.06 699.322 1198.39 697.971C1199.73 696.62 1200.4 694.439 1200.4 691.428V669.675ZM1208.06 694.138L1211.82 693.283C1213.33 697.824 1216.61 700.095 1221.66 700.095C1224.3 700.095 1226.28 699.541 1227.62 698.435C1228.95 697.312 1229.62 695.814 1229.62 693.942C1229.62 692.526 1229.11 691.387 1228.08 690.524C1227.07 689.662 1225.9 689.068 1224.57 688.742L1217.9 687.082C1216.18 686.643 1214.76 686.114 1213.65 685.495C1212.56 684.86 1211.63 683.892 1210.87 682.59C1210.1 681.288 1209.72 679.799 1209.72 678.122C1209.72 675.339 1210.77 673.125 1212.87 671.481C1214.97 669.821 1217.66 668.991 1220.95 668.991C1227.01 668.991 1230.99 671.734 1232.89 677.219L1229.11 678.342C1228.67 676.389 1227.63 674.916 1226.01 673.923C1224.38 672.914 1222.64 672.409 1220.81 672.409C1218.98 672.409 1217.36 672.889 1215.92 673.85C1214.51 674.81 1213.8 676.169 1213.8 677.927C1213.8 680.384 1215.61 682.045 1219.22 682.907L1225.44 684.396C1231.14 685.764 1233.99 688.832 1233.99 693.601C1233.99 696.481 1232.92 698.882 1230.77 700.803C1228.63 702.707 1225.62 703.659 1221.73 703.659C1214.83 703.659 1210.28 700.485 1208.06 694.138ZM1244.37 703H1240.19V669.675H1244.37V703ZM1277.23 703H1273.17L1255.94 673.947L1255.99 676.145C1256.04 676.975 1256.06 677.674 1256.06 678.244V703H1252.69V669.675H1257.92L1274.03 696.848L1273.98 694.528C1273.95 693.617 1273.93 692.811 1273.93 692.111V669.675H1277.23V703ZM1307.11 699.338V703H1285.55V669.675H1306.65V673.337H1289.73V683.933H1303.15V687.326H1289.73V699.338H1307.11ZM1309.28 694.138L1313.04 693.283C1314.56 697.824 1317.84 700.095 1322.88 700.095C1325.52 700.095 1327.5 699.541 1328.84 698.435C1330.17 697.312 1330.84 695.814 1330.84 693.942C1330.84 692.526 1330.33 691.387 1329.3 690.524C1328.29 689.662 1327.12 689.068 1325.79 688.742L1319.12 687.082C1317.4 686.643 1315.98 686.114 1314.87 685.495C1313.78 684.86 1312.85 683.892 1312.09 682.59C1311.32 681.288 1310.94 679.799 1310.94 678.122C1310.94 675.339 1311.99 673.125 1314.09 671.481C1316.19 669.821 1318.89 668.991 1322.17 668.991C1328.23 668.991 1332.21 671.734 1334.11 677.219L1330.33 678.342C1329.89 676.389 1328.85 674.916 1327.23 673.923C1325.6 672.914 1323.87 672.409 1322.03 672.409C1320.2 672.409 1318.58 672.889 1317.14 673.85C1315.73 674.81 1315.02 676.169 1315.02 677.927C1315.02 680.384 1316.83 682.045 1320.44 682.907L1326.67 684.396C1332.36 685.764 1335.21 688.832 1335.21 693.601C1335.21 696.481 1334.14 698.882 1331.99 700.803C1329.86 702.707 1326.84 703.659 1322.95 703.659C1316.05 703.659 1311.5 700.485 1309.28 694.138ZM1337.75 694.138L1341.51 693.283C1343.02 697.824 1346.3 700.095 1351.35 700.095C1353.98 700.095 1355.97 699.541 1357.3 698.435C1358.64 697.312 1359.31 695.814 1359.31 693.942C1359.31 692.526 1358.79 691.387 1357.77 690.524C1356.76 689.662 1355.59 689.068 1354.25 688.742L1347.59 687.082C1345.86 686.643 1344.45 686.114 1343.34 685.495C1342.25 684.86 1341.32 683.892 1340.56 682.59C1339.79 681.288 1339.41 679.799 1339.41 678.122C1339.41 675.339 1340.46 673.125 1342.56 671.481C1344.66 669.821 1347.35 668.991 1350.64 668.991C1356.69 668.991 1360.67 671.734 1362.58 677.219L1358.79 678.342C1358.35 676.389 1357.32 674.916 1355.69 673.923C1354.07 672.914 1352.33 672.409 1350.49 672.409C1348.67 672.409 1347.04 672.889 1345.61 673.85C1344.19 674.81 1343.49 676.169 1343.49 677.927C1343.49 680.384 1345.29 682.045 1348.91 682.907L1355.13 684.396C1360.83 685.764 1363.68 688.832 1363.68 693.601C1363.68 696.481 1362.6 698.882 1360.45 700.803C1358.32 702.707 1355.31 703.659 1351.42 703.659C1344.52 703.659 1339.96 700.485 1337.75 694.138Z" fill="#1A5F35"/>
<path d="M261.622 1.2483C234.822 5.11497 214.689 15.515 200.422 32.715C194.422 40.0483 185.889 55.915 182.689 65.915L180.422 72.8483L175.489 71.6483C163.356 68.8483 147.356 71.3817 134.689 78.1817C130.956 80.0483 123.622 86.0483 118.289 91.2483C94.289 115.382 86.689 152.048 97.2224 193.248L98.0224 196.715L80.9557 197.515C55.2224 198.848 40.289 203.515 26.9557 214.448C10.8224 227.782 0.289025 260.848 0.0223586 299.115C-0.110975 316.982 0.289025 319.915 2.95569 326.715C7.35569 337.648 16.1557 346.715 27.6224 352.448C36.1557 356.715 46.9557 359.515 67.6224 363.115C72.4224 363.915 72.5557 364.048 72.5557 369.515C72.5557 386.048 81.089 402.048 94.1557 410.582C104.556 417.248 114.156 420.048 126.556 420.048C137.889 419.915 144.156 418.448 155.489 413.115C160.156 410.848 165.489 409.115 167.356 409.115C169.356 409.115 174.022 411.248 177.889 413.915C187.756 420.715 192.689 422.448 201.756 422.448C208.422 422.448 211.222 421.648 220.022 416.982C232.022 410.582 240.156 409.782 247.489 414.048C253.622 417.648 264.956 432.048 270.822 443.782L275.889 453.782L276.422 475.115C277.222 509.782 272.689 579.648 267.756 608.448C262.822 637.515 253.622 665.115 242.156 684.715C233.889 698.848 226.022 708.715 212.689 721.515C206.022 727.915 200.556 733.648 200.556 734.315C200.556 736.048 205.622 737.115 213.622 737.115C221.889 737.115 252.422 729.648 271.622 722.982C303.356 711.782 301.489 711.382 328.822 735.248L349.222 753.115L352.556 736.448C354.289 727.248 356.289 719.782 356.956 719.782C357.622 719.782 367.889 723.115 379.756 727.115C391.489 731.115 406.956 735.648 413.889 737.115C426.422 739.915 460.556 742.315 460.556 740.582C460.556 740.048 456.956 735.515 452.422 730.582C440.422 717.115 419.889 687.382 413.222 673.782C403.222 653.648 391.622 610.315 385.889 572.448C380.289 535.248 380.956 479.782 387.356 454.715C392.422 434.582 402.956 417.248 416.422 406.582L421.489 402.582L432.156 409.115C442.422 415.382 443.089 416.182 450.822 429.382C455.222 436.982 464.422 433.115 466.022 437.249C470.956 449.515 475.022 447.249 478.022 447.249C483.723 447.249 486.623 449.415 490.223 450.749C495.689 452.882 501.522 444.249 510.522 445.249C522.522 441.749 525.022 452.249 535.522 450.749C543.022 446.749 545.522 450.749 547.522 443.415C551.389 439.282 553.522 429.982 553.522 426.249C553.522 424.515 551.789 414.349 553.522 411.415C562.289 423.117 584.223 423.815 596.223 418.614C612.223 411.679 613.456 398.082 620.522 390.749C621.723 383.615 622.223 380.615 620.522 370.749C619.557 365.146 621.056 360.848 627.723 358.715C652.389 350.448 640.156 329.915 647.889 298.448C650.422 288.182 653.889 279.115 661.222 264.448C674.956 236.848 677.889 221.382 673.222 201.382C670.822 191.248 668.422 186.315 662.156 178.715C651.356 165.248 634.156 158.848 618.556 162.315C614.556 163.248 600.954 166.155 597.954 165.655C597.954 166.322 612.022 166.448 612.956 166.448C614.156 166.448 614.022 166.848 612.689 167.648C611.756 168.315 609.356 168.182 607.089 167.248C604.156 166.182 602.556 166.182 600.556 167.515C599.089 168.315 596.289 169.115 594.289 169.248C590.956 169.248 588.323 169.682 590.723 170.749C596.189 173.015 583.289 186.681 593.022 183.615C594.356 183.081 596.022 174.082 596.022 174.749C596.022 177.149 630.189 167.248 615.522 167.248C614.322 162.248 611.656 167.089 611.022 165.655C611.022 164.055 586.822 166.448 589.889 167.115C592.022 167.648 595.222 167.515 596.822 166.982C599.489 166.048 599.089 165.782 593.889 164.448C588.689 163.115 587.889 162.982 587.889 162.982L586.822 153.782C582.156 113.115 564.556 83.7816 531.889 62.5816C509.356 47.9149 490.289 40.9816 471.756 40.8483C449.356 40.7149 431.622 48.5816 399.089 73.2483L388.822 80.9816L384.689 69.3816C370.956 30.8483 345.222 8.31496 307.756 1.78163C295.489 -0.351704 274.156 -0.618363 261.622 1.2483ZM575.522 144.249C571.722 174.248 579.889 162.448 578.022 162.448C577.622 162.448 577.222 155.915 577.222 147.915C577.222 139.915 577.356 133.515 577.489 133.648C577.622 133.782 574.722 139.315 575.522 144.249ZM380.156 374.715C380.022 375.115 371.089 383.382 360.156 393.115L340.556 410.715L336.156 407.115C328.689 400.715 321.889 394.448 321.889 393.782C321.889 393.382 325.356 388.182 329.622 382.182C333.889 376.048 341.756 364.982 347.089 357.382L356.822 343.648L368.689 358.715C375.222 366.982 380.422 374.182 380.156 374.715Z" fill="#1A5F35"/>
<ellipse cx="509.223" cy="421.115" rx="60.5" ry="36.5" fill="#1A5F35"/>
<ellipse cx="583.723" cy="384.615" rx="38" ry="36" fill="#1A5F35"/>
<path d="M277.63 51.8759C271.849 52.7063 267.186 54.8782 263.353 58.4873C258.083 63.4379 255.336 69.187 255.272 75.479L255.24 78.4813L256.997 78.9285C258.051 79.2159 260.574 79.4076 263.385 79.4076C267.186 79.4395 268.527 79.3118 270.827 78.7368C277.534 77.0441 283.315 73.2433 287.307 67.8455C290.278 63.8531 292.833 57.5291 293.12 53.409L293.248 52.0036L291.012 51.812C287.754 51.5246 279.834 51.5565 277.63 51.8759Z" fill="#319C3C"/>
<path d="M246.872 62.3517C246.297 62.7349 245.818 63.1821 245.818 63.3737C245.818 63.5654 246.393 66.8551 247.096 70.6559C248.405 77.8742 249.651 85.1244 249.651 85.5396C249.651 86.1145 244.668 85.2841 238.632 83.751C233.17 82.3776 231.669 82.1221 228.187 81.9624C223.46 81.7388 220.49 82.1221 216.306 83.4955C203.69 87.6157 194.747 98.475 191.457 113.614C190.85 116.393 190.755 117.83 190.723 123.867C190.723 129.967 190.818 131.373 191.457 134.535C194.268 148.396 201.742 161.747 213.176 173.341C218.765 179.026 223.109 182.124 228.028 184.009C232.914 185.925 236.875 186.085 245.019 184.711C249.97 183.913 252.972 183.913 257.923 184.775C262.714 185.605 269.07 185.765 271.529 185.062C277.438 183.402 282.995 179.793 289.16 173.596C300.53 162.098 308.227 148.364 311.038 134.566C312.028 129.68 312.092 118.82 311.198 114.285C308.068 98.8902 298.933 87.6795 286.125 83.4955C279.546 81.3236 273.477 81.3236 265.141 83.4316C258.274 85.1563 257.188 85.3799 254.665 85.6674L252.493 85.8909L252.749 83.4955C253.164 79.7267 253.036 69.57 252.557 66.4399C252.046 62.9585 251.407 62.0642 249.331 61.8406C248.245 61.7448 247.639 61.8726 246.872 62.3517Z" fill="#319C3C"/>
<path d="M487.974 230.914C494.609 231.867 499.961 234.36 504.361 238.503C510.409 244.185 513.562 250.783 513.635 258.005L513.672 261.451L511.656 261.964C510.446 262.294 507.55 262.514 504.324 262.514C499.961 262.551 498.422 262.404 495.782 261.744C488.084 259.802 481.449 255.439 476.866 249.244C473.457 244.661 470.524 237.403 470.194 232.674L470.048 231.061L472.614 230.841C476.353 230.511 485.445 230.548 487.974 230.914Z" fill="#D00909"/>
<path d="M523.276 242.939C523.936 243.379 524.486 243.892 524.486 244.112C524.486 244.332 523.826 248.108 523.02 252.47C521.517 260.755 520.087 269.076 520.087 269.553C520.087 270.213 525.806 269.26 532.734 267.5C539.003 265.924 540.726 265.63 544.722 265.447C550.147 265.191 553.557 265.63 558.359 267.207C572.839 271.936 583.104 284.4 586.88 301.776C587.576 304.965 587.686 306.615 587.723 313.544C587.723 320.546 587.613 322.159 586.88 325.788C583.654 341.698 575.075 357.021 561.951 370.328C555.536 376.854 550.551 380.41 544.905 382.572C539.296 384.772 534.751 384.955 525.403 383.379C519.72 382.462 516.274 382.462 510.592 383.452C505.093 384.405 497.798 384.589 494.976 383.782C488.194 381.876 481.815 377.733 474.74 370.622C461.689 357.424 452.855 341.661 449.629 325.824C448.492 320.216 448.419 307.752 449.445 302.546C453.038 284.876 463.522 272.009 478.222 267.207C485.774 264.714 492.739 264.714 502.307 267.133C510.189 269.113 511.435 269.37 514.332 269.7L516.824 269.956L516.531 267.207C516.054 262.881 516.201 251.224 516.751 247.631C517.338 243.635 518.071 242.609 520.454 242.352C521.7 242.242 522.396 242.389 523.276 242.939Z" fill="#D00909"/>
<path d="M84.9879 230.808C89.2589 231.421 92.7041 233.026 95.5357 235.693C99.4292 239.35 101.459 243.597 101.506 248.246L101.529 250.464L100.231 250.795C99.4528 251.007 97.5886 251.149 95.5121 251.149C92.7041 251.172 91.713 251.078 90.014 250.653C85.0587 249.402 80.7876 246.594 77.838 242.606C75.6435 239.657 73.7558 234.985 73.5434 231.941L73.449 230.902L75.1008 230.761C77.5077 230.548 83.3597 230.572 84.9879 230.808Z" fill="#319C3C"/>
<path d="M107.712 238.547C108.137 238.831 108.491 239.161 108.491 239.303C108.491 239.444 108.066 241.875 107.547 244.683C106.579 250.016 105.659 255.372 105.659 255.679C105.659 256.104 109.34 255.49 113.8 254.357C117.835 253.343 118.944 253.154 121.516 253.036C125.008 252.871 127.203 253.154 130.294 254.169C139.615 257.213 146.222 265.236 148.653 276.42C149.101 278.473 149.172 279.535 149.195 283.995C149.195 288.502 149.125 289.54 148.653 291.876C146.576 302.118 141.054 311.981 132.607 320.547C128.477 324.747 125.268 327.036 121.634 328.428C118.024 329.844 115.098 329.962 109.081 328.947C105.423 328.357 103.205 328.357 99.5474 328.994C96.0079 329.608 91.3121 329.726 89.4952 329.207C85.1297 327.98 81.0239 325.313 76.4697 320.735C68.0692 312.241 62.3823 302.094 60.3058 291.9C59.5743 288.29 59.5271 280.267 60.1878 276.916C62.5003 265.542 69.249 257.26 78.7114 254.169C83.5723 252.564 88.0558 252.564 94.2145 254.121C99.2879 255.396 100.09 255.561 101.954 255.773L103.559 255.938L103.37 254.169C103.063 251.384 103.158 243.88 103.512 241.568C103.889 238.996 104.361 238.335 105.895 238.17C106.697 238.099 107.146 238.194 107.712 238.547Z" fill="#319C3C"/>
<path d="M471.68 638V550.64H457.4V535.1H501.08V550.64H486.8V638H471.68ZM508.084 638V535.1H523.204C532.258 535.1 538.931 537.62 543.224 542.66C547.518 547.653 549.664 555.027 549.664 564.78C549.664 570.567 548.638 575.583 546.584 579.83C544.578 584.03 542.128 587.11 539.234 589.07L549.524 638H534.404L525.864 594.6H523.204V638H508.084ZM523.204 580.6C526.004 580.6 528.221 579.993 529.854 578.78C531.488 577.52 532.654 575.747 533.354 573.46C534.054 571.173 534.404 568.467 534.404 565.34C534.404 560.44 533.588 556.683 531.954 554.07C530.368 551.41 527.451 550.08 523.204 550.08V580.6ZM578.283 639.12C574.037 639.12 570.397 638.14 567.363 636.18C564.377 634.22 562.09 631.56 560.503 628.2C558.917 624.84 558.123 621.06 558.123 616.86V535.1H573.243V616.86C573.243 618.867 573.64 620.64 574.433 622.18C575.227 623.673 576.51 624.42 578.283 624.42C580.15 624.42 581.457 623.673 582.203 622.18C582.95 620.64 583.323 618.867 583.323 616.86V535.1H598.443V616.86C598.443 621.06 597.627 624.84 595.993 628.2C594.407 631.56 592.097 634.22 589.063 636.18C586.077 638.14 582.483 639.12 578.283 639.12ZM609.666 638V535.1H644.246V550.64H624.786V578.36H638.786V593.48H624.786V622.46H644.246V638H609.666Z" fill="#1A5F35"/>
<path d="M655.467 638V535.1H690.047V550.64H670.587V578.36H684.587V593.48H670.587V622.46H690.047V638H655.467Z" fill="#D00909"/>
<path d="M751.077 639.505C746.924 639.505 743.471 638.829 740.717 637.475C737.964 636.075 735.794 634.069 734.207 631.455C732.621 628.842 731.477 625.692 730.777 622.005C730.124 618.319 729.797 614.165 729.797 609.545L744.637 608.145C744.637 610.385 744.707 612.555 744.847 614.655C745.034 616.709 745.337 618.575 745.757 620.255C746.224 621.889 746.877 623.195 747.717 624.175C748.604 625.155 749.724 625.645 751.077 625.645C753.317 625.645 754.904 624.619 755.837 622.565C756.771 620.465 757.237 617.945 757.237 615.005C757.237 612.065 756.467 609.009 754.927 605.835C753.387 602.662 751.544 599.652 749.397 596.805C745.757 591.952 742.561 587.449 739.807 583.295C737.101 579.142 734.977 575.059 733.437 571.045C731.944 567.032 731.197 562.832 731.197 558.445C731.197 554.992 731.641 551.819 732.527 548.925C733.414 545.985 734.697 543.442 736.377 541.295C738.104 539.102 740.181 537.399 742.607 536.185C745.034 534.972 747.811 534.365 750.937 534.365C754.811 534.365 758.077 535.019 760.737 536.325C763.444 537.632 765.614 539.499 767.247 541.925C768.927 544.352 770.141 547.245 770.887 550.605C771.681 553.919 772.077 557.605 772.077 561.665L757.237 563.065C757.237 561.339 757.144 559.612 756.957 557.885C756.817 556.112 756.537 554.502 756.117 553.055C755.697 551.609 755.091 550.442 754.297 549.555C753.504 548.669 752.477 548.225 751.217 548.225C749.257 548.225 747.904 549.065 747.157 550.745C746.411 552.379 746.037 554.712 746.037 557.745C746.037 561.665 747.087 565.445 749.187 569.085C751.287 572.725 754.111 576.972 757.657 581.825C761.904 587.565 765.357 592.839 768.017 597.645C770.724 602.452 772.077 607.772 772.077 613.605C772.077 617.292 771.681 620.722 770.887 623.895C770.094 627.022 768.834 629.752 767.107 632.085C765.427 634.419 763.257 636.239 760.597 637.545C757.984 638.852 754.811 639.505 751.077 639.505ZM780.182 638.385V535.485H814.762V551.025H795.302V578.745H809.302V593.865H795.302V622.845H814.762V638.385H780.182ZM825.983 638.385V535.485H841.103C850.156 535.485 856.829 538.005 861.123 543.045C865.416 548.039 867.563 555.412 867.563 565.165C867.563 570.952 866.536 575.969 864.483 580.215C862.476 584.415 860.026 587.495 857.133 589.455L867.423 638.385H852.303L843.763 594.985H841.103V638.385H825.983ZM841.103 580.985C843.903 580.985 846.119 580.379 847.753 579.165C849.386 577.905 850.553 576.132 851.253 573.845C851.953 571.559 852.303 568.852 852.303 565.725C852.303 560.825 851.486 557.069 849.853 554.455C848.266 551.795 845.349 550.465 841.103 550.465V580.985ZM888.202 638.385L872.522 535.485H887.222L894.782 596.245L895.342 606.185H896.182L896.742 596.245L904.302 535.485H919.002L903.322 638.385H888.202ZM926.745 638.385V535.485H941.865V638.385H926.745ZM972.591 639.505C968.298 639.505 964.635 638.549 961.601 636.635C958.615 634.675 956.328 632.015 954.741 628.655C953.201 625.295 952.431 621.492 952.431 617.245V556.625C952.431 552.425 953.225 548.645 954.811 545.285C956.445 541.925 958.778 539.265 961.811 537.305C964.845 535.345 968.438 534.365 972.591 534.365C975.718 534.365 978.518 534.949 980.991 536.115C983.465 537.282 985.565 538.892 987.291 540.945C989.065 542.952 990.418 545.309 991.351 548.015C992.285 550.675 992.751 553.545 992.751 556.625V570.765H978.611V556.625C978.611 554.479 978.168 552.682 977.281 551.235C976.395 549.789 974.925 549.065 972.871 549.065C971.005 549.065 969.651 549.812 968.811 551.305C967.971 552.799 967.551 554.572 967.551 556.625V617.245C967.551 619.299 967.995 621.072 968.881 622.565C969.815 624.059 971.145 624.805 972.871 624.805C974.971 624.805 976.441 624.082 977.281 622.635C978.168 621.189 978.611 619.392 978.611 617.245V603.105H992.751V617.245C992.751 621.445 991.935 625.225 990.301 628.585C988.668 631.945 986.335 634.605 983.301 636.565C980.315 638.525 976.745 639.505 972.591 639.505ZM1003.31 638.385V535.485H1037.89V551.025H1018.43V578.745H1032.43V593.865H1018.43V622.845H1037.89V638.385H1003.31Z" fill="#1A5F35"/>
</svg>
